<?xml version="1.0" encoding="UTF-8" standalone="no"?>
<svg width="52px" height="52px" viewBox="0 0 52 52" version="1.1" xmlns="http://www.w3.org/2000/svg" xmlns:xlink="http://www.w3.org/1999/xlink" xmlns:sketch="http://www.bohemiancoding.com/sketch/ns">
    <!-- Generator: Sketch 3.2.2 (9983) - http://www.bohemiancoding.com/sketch -->
    <title>Artboard 5</title>
    <desc>Created with Sketch.</desc>
    <defs></defs>
    <g id="Page-1" stroke="none" stroke-width="1" fill="none" fill-rule="evenodd" sketch:type="MSPage">
        <g id="Artboard-5" sketch:type="MSArtboardGroup">
            <g id="message" sketch:type="MSLayerGroup" transform="translate(26.000000, 0.000000)" fill="#728E9D">
                <path d="M26,15.8326159 C26,17.5611873 24.5375,18.975473 22.75,18.975473 L18.25,18.975473 L19.25,22 L12.75,18.975473 L3.25,18.975473 C1.460875,18.975473 0,17.5611873 0,15.8326159 L0,3.14285714 C0,1.41428571 1.460875,0 3.25,0 L22.75,0 C24.5375,0 26,1.41428571 26,3.14285714 L26,15.8326159 Z M15.9183661,4.5735507 C15.1543305,4.02970372 14.1945944,3.75778023 13.039158,3.75778023 C12.160517,3.75778023 11.4185982,3.94898677 10.8160823,4.33206147 C9.85969734,4.93148405 9.35168064,5.94970851 9.29002162,7.38541161 L11.5063953,7.38541161 C11.5063953,6.96660974 11.6303835,6.56500984 11.8770196,6.17598061 C12.1243259,5.78827461 12.5438753,5.59442161 13.1356678,5.59442161 C13.7375135,5.59442161 14.1523714,5.75188582 14.3782311,6.06615263 C14.6054312,6.38174267 14.7186961,6.73041342 14.7186961,7.1128265 C14.7186961,7.44628013 14.549804,7.75128433 14.345391,8.02783912 C14.2334664,8.18927302 14.0860209,8.33813625 13.9023843,8.47376718 C13.9023843,8.47376718 12.7007036,9.23462367 12.173251,9.84595531 C11.8676367,10.199919 11.8401582,10.7311953 11.8126797,11.4920518 C11.8113393,11.5463041 11.8321157,11.6587786 12.0237949,11.6587786 L13.7468963,11.6587786 C13.9184693,11.6587786 13.9539902,11.5337335 13.9560008,11.4774962 C13.9680646,11.2009415 13.9988941,11.0586944 14.0505,10.8985837 C14.1470098,10.596226 14.4110712,10.3329035 14.7066324,10.1053081 L15.3165205,9.69047594 C15.8674304,9.26638115 16.3064158,8.91903363 16.5007758,8.64644852 C16.8318579,8.19919724 17.0650898,7.64741088 17.0650898,6.9924127 C17.0644196,5.92390555 16.6824018,5.11872091 15.9183661,4.5735507 Z M13.0036371,12.9700982 C12.2402716,12.9469417 11.6102773,13.4689554 11.5861499,14.2867107 C11.5626926,15.1031428 12.1611872,15.6436817 12.9252229,15.665515 C13.7220987,15.6886715 14.3353379,15.1845213 14.3601355,14.366766 C14.3829225,13.5490107 13.8011831,12.9932547 13.0036371,12.9700982 Z" id="Shape" sketch:type="MSShapeGroup"></path>
            </g>
            <g id="info-with-circle" sketch:type="MSLayerGroup" transform="translate(2.000000, 0.000000)" fill="#728E9D">
                <path d="M11,0.44 C5.1667,0.44 0.4389,5.1678 0.4389,11 C0.4389,16.8333 5.1667,21.5611 11,21.5611 C16.8311,21.5611 21.56,16.8333 21.56,11 C21.56,5.1678 16.8311,0.44 11,0.44 L11,0.44 Z M11.9856,4.2526 C13.0152,4.2526 13.3177,4.8499 13.3177,5.533 C13.3177,6.3855 12.6357,7.1742 11.4708,7.1742 C10.4962,7.1742 10.032,6.6847 10.0606,5.874 C10.0606,5.1909 10.6315,4.2526 11.9856,4.2526 L11.9856,4.2526 Z M9.3478,17.325 C8.6438,17.325 8.1301,16.8971 8.6218,15.0216 L9.4281,11.6941 C9.5678,11.1617 9.5909,10.9483 9.4281,10.9483 C9.218,10.9483 8.3039,11.3157 7.7649,11.6787 L7.414,11.1034 C9.1245,9.6745 11.0913,8.8363 11.9328,8.8363 C12.6368,8.8363 12.7534,9.6679 12.4025,10.9483 L11.4785,14.4463 C11.3146,15.0645 11.385,15.2779 11.5489,15.2779 C11.7601,15.2779 12.4509,15.0227 13.1307,14.487 L13.5289,15.0216 C11.8646,16.6848 10.0507,17.325 9.3478,17.325 L9.3478,17.325 Z" id="Shape" sketch:type="MSShapeGroup"></path>
            </g>
            <g id="message-2" sketch:type="MSLayerGroup" transform="translate(26.000000, 26.000000)" fill="#FFFFFF">
                <path d="M26,15.8326159 C26,17.5611873 24.5375,18.975473 22.75,18.975473 L18.25,18.975473 L19.25,22 L12.75,18.975473 L3.25,18.975473 C1.460875,18.975473 0,17.5611873 0,15.8326159 L0,3.14285714 C0,1.41428571 1.460875,0 3.25,0 L22.75,0 C24.5375,0 26,1.41428571 26,3.14285714 L26,15.8326159 Z M15.9183661,4.5735507 C15.1543305,4.02970372 14.1945944,3.75778023 13.039158,3.75778023 C12.160517,3.75778023 11.4185982,3.94898677 10.8160823,4.33206147 C9.85969734,4.93148405 9.35168064,5.94970851 9.29002162,7.38541161 L11.5063953,7.38541161 C11.5063953,6.96660974 11.6303835,6.56500984 11.8770196,6.17598061 C12.1243259,5.78827461 12.5438753,5.59442161 13.1356678,5.59442161 C13.7375135,5.59442161 14.1523714,5.75188582 14.3782311,6.06615263 C14.6054312,6.38174267 14.7186961,6.73041342 14.7186961,7.1128265 C14.7186961,7.44628013 14.549804,7.75128433 14.345391,8.02783912 C14.2334664,8.18927302 14.0860209,8.33813625 13.9023843,8.47376718 C13.9023843,8.47376718 12.7007036,9.23462367 12.173251,9.84595531 C11.8676367,10.199919 11.8401582,10.7311953 11.8126797,11.4920518 C11.8113393,11.5463041 11.8321157,11.6587786 12.0237949,11.6587786 L13.7468963,11.6587786 C13.9184693,11.6587786 13.9539902,11.5337335 13.9560008,11.4774962 C13.9680646,11.2009415 13.9988941,11.0586944 14.0505,10.8985837 C14.1470098,10.596226 14.4110712,10.3329035 14.7066324,10.1053081 L15.3165205,9.69047594 C15.8674304,9.26638115 16.3064158,8.91903363 16.5007758,8.64644852 C16.8318579,8.19919724 17.0650898,7.64741088 17.0650898,6.9924127 C17.0644196,5.92390555 16.6824018,5.11872091 15.9183661,4.5735507 Z M13.0036371,12.9700982 C12.2402716,12.9469417 11.6102773,13.4689554 11.5861499,14.2867107 C11.5626926,15.1031428 12.1611872,15.6436817 12.9252229,15.665515 C13.7220987,15.6886715 14.3353379,15.1845213 14.3601355,14.366766 C14.3829225,13.5490107 13.8011831,12.9932547 13.0036371,12.9700982 Z" id="Shape" sketch:type="MSShapeGroup"></path>
            </g>
            <g id="info-with-circle-2" sketch:type="MSLayerGroup" transform="translate(2.000000, 26.000000)" fill="#FFFFFF">
                <path d="M11,0.44 C5.1667,0.44 0.4389,5.1678 0.4389,11 C0.4389,16.8333 5.1667,21.5611 11,21.5611 C16.8311,21.5611 21.56,16.8333 21.56,11 C21.56,5.1678 16.8311,0.44 11,0.44 L11,0.44 Z M11.9856,4.2526 C13.0152,4.2526 13.3177,4.8499 13.3177,5.533 C13.3177,6.3855 12.6357,7.1742 11.4708,7.1742 C10.4962,7.1742 10.032,6.6847 10.0606,5.874 C10.0606,5.1909 10.6315,4.2526 11.9856,4.2526 L11.9856,4.2526 Z M9.3478,17.325 C8.6438,17.325 8.1301,16.8971 8.6218,15.0216 L9.4281,11.6941 C9.5678,11.1617 9.5909,10.9483 9.4281,10.9483 C9.218,10.9483 8.3039,11.3157 7.7649,11.6787 L7.414,11.1034 C9.1245,9.6745 11.0913,8.8363 11.9328,8.8363 C12.6368,8.8363 12.7534,9.6679 12.4025,10.9483 L11.4785,14.4463 C11.3146,15.0645 11.385,15.2779 11.5489,15.2779 C11.7601,15.2779 12.4509,15.0227 13.1307,14.487 L13.5289,15.0216 C11.8646,16.6848 10.0507,17.325 9.3478,17.325 L9.3478,17.325 Z" id="Shape" sketch:type="MSShapeGroup"></path>
            </g>
        </g>
    </g>
</svg>