<?xml version="1.0" encoding="UTF-8" standalone="no"?>
<svg width="444px" height="92px" viewBox="0 0 444 92" version="1.1" xmlns="http://www.w3.org/2000/svg" xmlns:xlink="http://www.w3.org/1999/xlink">
    <!-- Generator: Sketch 41.2 (35397) - http://www.bohemiancoding.com/sketch -->
    <title>icon-topnav</title>
    <desc>Created with Sketch.</desc>
    <defs>
        <polyline id="path-1" points="0 0.194285714 13.1337143 0.194285714 13.1337143 17 0 17"></polyline>
        <polyline id="path-3" points="0 0.194285714 13.1337143 0.194285714 13.1337143 17 0 17"></polyline>
        <polyline id="path-5" points="0 0.643 14 0.643 14 17 0 17"></polyline>
        <polyline id="path-7" points="0 0.643 14 0.643 14 17 0 17"></polyline>
        <polyline id="path-9" points="0 0.194285714 13.1337143 0.194285714 13.1337143 17 0 17"></polyline>
        <polyline id="path-11" points="0 0.194285714 13.1337143 0.194285714 13.1337143 17 0 17"></polyline>
        <polyline id="path-13" points="0 0.643 14 0.643 14 17 0 17"></polyline>
        <polyline id="path-15" points="0 0.194285714 13.1337143 0.194285714 13.1337143 17 0 17"></polyline>
        <polyline id="path-17" points="0 0.194285714 13.1337143 0.194285714 13.1337143 17 0 17"></polyline>
        <path d="M29.527282,11.2706722 C27.8697131,4.83330197 21.983825,0.0671441249 14.976896,0.0671441249 C8.08501797,0.0671441249 2.27759936,4.6688011 0.511528084,10.9455898 C0.152487894,12.2219552 0.0580987124,13.8655082 0.0580987124,13.8655082 C0.000629700912,14.4810706 0.0021642966,14.9645449 0.0021642966,14.9645449 L8.97857026,14.9645446 C8.97857026,14.9645446 9.20430533,13.1799302 9.58161261,12.3996551 C10.5474648,10.4022634 12.6004027,9.07045907 14.976896,9.07045907 C17.4230166,9.07045907 19.5263448,10.4814459 20.4542544,12.576913 C20.7800092,13.3125543 20.9465766,14.9645446 20.9465766,14.9645446 L29.9427999,14.9645449 C29.9427999,14.9645449 29.9528236,14.4805107 29.9026935,13.8646123 C29.9026935,13.8646123 29.8315629,12.4526372 29.527282,11.2706722 Z" id="path-19"></path>
        <path d="M29.527282,11.2706722 C27.8697131,4.83330197 21.983825,0.0671441249 14.976896,0.0671441249 C8.08501797,0.0671441249 2.27759936,4.6688011 0.511528084,10.9455898 C0.152487894,12.2219552 0.0580987124,13.8655082 0.0580987124,13.8655082 C0.000629700912,14.4810706 0.0021642966,14.9645449 0.0021642966,14.9645449 L8.97857026,14.9645446 C8.97857026,14.9645446 9.20430533,13.1799302 9.58161261,12.3996551 C10.5474648,10.4022634 12.6004027,9.07045907 14.976896,9.07045907 C17.4230166,9.07045907 19.5263448,10.4814459 20.4542544,12.576913 C20.7800092,13.3125543 20.9465766,14.9645446 20.9465766,14.9645446 L29.9427999,14.9645449 C29.9427999,14.9645449 29.9528236,14.4805107 29.9026935,13.8646123 C29.9026935,13.8646123 29.8315629,12.4526372 29.527282,11.2706722 Z" id="path-21"></path>
        <path d="M29.527282,11.2706722 C27.8697131,4.83330197 21.983825,0.0671441249 14.976896,0.0671441249 C8.08501797,0.0671441249 2.27759936,4.6688011 0.511528084,10.9455898 C0.152487894,12.2219552 0.0580987124,13.8655082 0.0580987124,13.8655082 C0.000629700912,14.4810706 0.0021642966,14.9645449 0.0021642966,14.9645449 L8.97857026,14.9645446 C8.97857026,14.9645446 9.20430533,13.1799302 9.58161261,12.3996551 C10.5474648,10.4022634 12.6004027,9.07045907 14.976896,9.07045907 C17.4230166,9.07045907 19.5263448,10.4814459 20.4542544,12.576913 C20.7800092,13.3125543 20.9465766,14.9645446 20.9465766,14.9645446 L29.9427999,14.9645449 C29.9427999,14.9645449 29.9528236,14.4805107 29.9026935,13.8646123 C29.9026935,13.8646123 29.8315629,12.4526372 29.527282,11.2706722 Z" id="path-23"></path>
        <path d="M29.527282,11.2706722 C27.8697131,4.83330197 21.983825,0.0671441249 14.976896,0.0671441249 C8.08501797,0.0671441249 2.27759936,4.6688011 0.511528084,10.9455898 C0.152487894,12.2219552 0.0580987124,13.8655082 0.0580987124,13.8655082 C0.000629700912,14.4810706 0.0021642966,14.9645449 0.0021642966,14.9645449 L8.97857026,14.9645446 C8.97857026,14.9645446 9.20430533,13.1799302 9.58161261,12.3996551 C10.5474648,10.4022634 12.6004027,9.07045907 14.976896,9.07045907 C17.4230166,9.07045907 19.5263448,10.4814459 20.4542544,12.576913 C20.7800092,13.3125543 20.9465766,14.9645446 20.9465766,14.9645446 L29.9427999,14.9645449 C29.9427999,14.9645449 29.9528236,14.4805107 29.9026935,13.8646123 C29.9026935,13.8646123 29.8315629,12.4526372 29.527282,11.2706722 Z" id="path-25"></path>
        <path d="M29.527282,11.2706722 C27.8697131,4.83330197 21.983825,0.0671441249 14.976896,0.0671441249 C8.08501797,0.0671441249 2.27759936,4.6688011 0.511528084,10.9455898 C0.152487894,12.2219552 0.0580987124,13.8655082 0.0580987124,13.8655082 C0.000629700912,14.4810706 0.0021642966,14.9645449 0.0021642966,14.9645449 L8.97857026,14.9645446 C8.97857026,14.9645446 9.20430533,13.1799302 9.58161261,12.3996551 C10.5474648,10.4022634 12.6004027,9.07045907 14.976896,9.07045907 C17.4230166,9.07045907 19.5263448,10.4814459 20.4542544,12.576913 C20.7800092,13.3125543 20.9465766,14.9645446 20.9465766,14.9645446 L29.9427999,14.9645449 C29.9427999,14.9645449 29.9528236,14.4805107 29.9026935,13.8646123 C29.9026935,13.8646123 29.8315629,12.4526372 29.527282,11.2706722 Z" id="path-27"></path>
        <path d="M29.527282,11.2706722 C27.8697131,4.83330197 21.983825,0.0671441249 14.976896,0.0671441249 C8.08501797,0.0671441249 2.27759936,4.6688011 0.511528084,10.9455898 C0.152487894,12.2219552 0.0580987124,13.8655082 0.0580987124,13.8655082 C0.000629700912,14.4810706 0.0021642966,14.9645449 0.0021642966,14.9645449 L8.97857026,14.9645446 C8.97857026,14.9645446 9.20430533,13.1799302 9.58161261,12.3996551 C10.5474648,10.4022634 12.6004027,9.07045907 14.976896,9.07045907 C17.4230166,9.07045907 19.5263448,10.4814459 20.4542544,12.576913 C20.7800092,13.3125543 20.9465766,14.9645446 20.9465766,14.9645446 L29.9427999,14.9645449 C29.9427999,14.9645449 29.9528236,14.4805107 29.9026935,13.8646123 C29.9026935,13.8646123 29.8315629,12.4526372 29.527282,11.2706722 Z" id="path-29"></path>
        <path d="M29.527282,11.2706722 C27.8697131,4.83330197 21.983825,0.0671441249 14.976896,0.0671441249 C8.08501797,0.0671441249 2.27759936,4.6688011 0.511528084,10.9455898 C0.152487894,12.2219552 0.0580987124,13.8655082 0.0580987124,13.8655082 C0.000629700912,14.4810706 0.0021642966,14.9645449 0.0021642966,14.9645449 L8.97857026,14.9645446 C8.97857026,14.9645446 9.20430533,13.1799302 9.58161261,12.3996551 C10.5474648,10.4022634 12.6004027,9.07045907 14.976896,9.07045907 C17.4230166,9.07045907 19.5263448,10.4814459 20.4542544,12.576913 C20.7800092,13.3125543 20.9465766,14.9645446 20.9465766,14.9645446 L29.9427999,14.9645449 C29.9427999,14.9645449 29.9528236,14.4805107 29.9026935,13.8646123 C29.9026935,13.8646123 29.8315629,12.4526372 29.527282,11.2706722 Z" id="path-31"></path>
        <path d="M29.527282,11.2706722 C27.8697131,4.83330197 21.983825,0.0671441249 14.976896,0.0671441249 C8.08501797,0.0671441249 2.27759936,4.6688011 0.511528084,10.9455898 C0.152487894,12.2219552 0.0580987124,13.8655082 0.0580987124,13.8655082 C0.000629700912,14.4810706 0.0021642966,14.9645449 0.0021642966,14.9645449 L8.97857026,14.9645446 C8.97857026,14.9645446 9.20430533,13.1799302 9.58161261,12.3996551 C10.5474648,10.4022634 12.6004027,9.07045907 14.976896,9.07045907 C17.4230166,9.07045907 19.5263448,10.4814459 20.4542544,12.576913 C20.7800092,13.3125543 20.9465766,14.9645446 20.9465766,14.9645446 L29.9427999,14.9645449 C29.9427999,14.9645449 29.9528236,14.4805107 29.9026935,13.8646123 C29.9026935,13.8646123 29.8315629,12.4526372 29.527282,11.2706722 Z" id="path-33"></path>
        <path d="M1.2945602,-5.68434189e-14 L2.48574668,8.12231084 C2.58830151,8.82159869 2.10738118,9.3884835 1.39198457,9.3884835 L1.16356449,9.3884835 C0.456941524,9.3884835 -0.031883435,8.82930709 0.0743299595,8.12231084 L1.2945602,-5.68434189e-14 Z" id="path-35"></path>
        <path d="M1.2945602,-5.68434189e-14 L2.48574668,8.12231084 C2.58830151,8.82159869 2.10738118,9.3884835 1.39198457,9.3884835 L1.16356449,9.3884835 C0.456941524,9.3884835 -0.031883435,8.82930709 0.0743299595,8.12231084 L1.2945602,-5.68434189e-14 Z" id="path-37"></path>
        <circle id="path-39" cx="7.5" cy="7.5" r="7.5"></circle>
        <circle id="path-41" cx="7.5" cy="7.5" r="7.5"></circle>
        <polygon id="path-43" points="8.8817842e-16 7 3 10 5.5 4.5 3 0 8.8817842e-16 3 0.5 5"></polygon>
        <polygon id="path-45" points="8.8817842e-16 7 3 10 5.5 4.5 3 0 8.8817842e-16 3 0.5 5"></polygon>
        <polygon id="path-47" points="8.8817842e-16 7 3 10 5.5 4.5 3 0 8.8817842e-16 3 0.5 5"></polygon>
        <polygon id="path-49" points="8.8817842e-16 7 3 10 5.5 4.5 3 0 8.8817842e-16 3 0.5 5"></polygon>
        <polygon id="path-51" points="0 7 3 10 5.5 4.5 3 0 0 3 0.5 5"></polygon>
        <polygon id="path-53" points="0 7 3 10 5.5 4.5 3 0 0 3 0.5 5"></polygon>
        <polygon id="path-55" points="0 7 3 10 5.5 4.5 3 0 0 3 0.5 5"></polygon>
        <polygon id="path-57" points="0 7 3 10 5.5 4.5 3 0 0 3 0.5 5"></polygon>
        <polygon id="path-59" points="0 7 3 10 5.5 4.5 3 0 0 3 0.5 5"></polygon>
        <polygon id="path-61" points="0 7 3 10 5.5 4.5 3 0 0 3 0.5 5"></polygon>
        <polygon id="path-63" points="0 7 3 10 5.5 4.5 3 0 0 3 0.5 5"></polygon>
        <polygon id="path-65" points="0 7 3 10 5.5 4.5 3 0 0 3 0.5 5"></polygon>
        <polygon id="path-67" points="0 7 3 10 5.5 4.5 3 0 0 3 0.5 5"></polygon>
        <polygon id="path-69" points="0 7 3 10 5.5 4.5 3 0 0 3 0.5 5"></polygon>
        <polygon id="path-71" points="0 7 3 10 5.5 4.5 3 0 0 3 0.5 5"></polygon>
        <polygon id="path-73" points="0 7 3 10 5.5 4.5 3 0 0 3 0.5 5"></polygon>
        <polygon id="path-75" points="0 7 3 10 5.5 4.5 3 0 0 3 0.5 5"></polygon>
        <polygon id="path-77" points="0 7 3 10 5.5 4.5 3 0 0 3 0.5 5"></polygon>
        <polygon id="path-79" points="0 7 3 10 5.5 4.5 3 0 0 3 0.5 5"></polygon>
        <polygon id="path-81" points="0 7 3 10 5.5 4.5 3 0 0 3 0.5 5"></polygon>
        <polygon id="path-83" points="0 7 3 10 5.5 4.5 3 0 0 3 0.5 5"></polygon>
        <polygon id="path-85" points="0 7 3 10 5.5 4.5 3 0 0 3 0.5 5"></polygon>
        <polygon id="path-87" points="0 7 3 10 5.5 4.5 3 0 0 3 0.5 5"></polygon>
        <polygon id="path-89" points="0 7 3 10 5.5 4.5 3 0 0 3 0.5 5"></polygon>
    </defs>
    <g id="Page-1" stroke="none" stroke-width="1" fill="none" fill-rule="evenodd">
        <g id="icon-topnav">
            <g>
                <g id="icon-topnav-1">
                    <g id="icon-topnav">
                        <g id="Page-1">
                            <g id="icon-topnav">
                                <g id="Group">
                                    <g id="Shape" fill="#FFFFFF">
                                        <path d="M36,6.1 L36,1 L34,1 L34,4.1 L30.616,0.8 C30.218,0.5 29.7,0.3 29.2,0.2 L29,0 L28.85,0.2 C28.324,0.2 27.8,0.4 27.4,0.8 L19,9.1 L20.047,10.2 L25.826,4.5 L22,10 L22,15 C22,15.5 22.5,16 23,16 L27,16 L27,11 L31,11 L31,16 L34.991,16 C35.548,16 36.001,15.6 36.001,15 L36.001,8.2 L38.029,10.2 L39.001,9 L36.001,6.1"></path>
                                        <path d="M57,0 L41,0 C40.448,0 40,0.4 40,1 L40,11 C40,11.6 40.4,12 41,12 L57,12 C57.552,12 58,11.6 58,11 L58,1 C58,0.4 57.6,0 57,0 M57,8 C57,8.6 56.6,9 56,9 L42,9 C41.448,9 41,8.6 41,8 L41,2 C41,1.4 41.4,1 42,1 L56,1 C56.552,1 57,1.4 57,2 L57,8 M42,8 L56,8 L56,2 L42,2 L42,8 M49,3 C50.105,3 51,3.9 51,5 C51,6.1 50.1,7 49,7 C47.895,7 47,6.1 47,5 C47,3.9 47.9,3 49,3"></path>
                                        <path d="M76,2 L78,2 L78,0 L76,0 L76,2 M76,6 L78,6 L78,4 L76,4 L76,6 M80,0 L80,2 L90,2 L90,0 L80,0 M80,6 L88,6 L88,4 L80,4 L80,6 M76,10 L78,10 L78,8 L76,8 L76,10 M80,10 L88,10 L88,8 L80,8 L80,10"></path>
                                        <path d="M102,0 L102,6 L100.488,5 L99,6 L99,0 L92.006,0 C90.897,0 89.996,0.9 89.996,2 L89.996,14 C89.996,15.1 90.896,16 91.996,16 L101.984,16 C103.099,16 103.994,15.1 103.994,14 L92.997,14 C92.443,14 91.997,13.6 91.997,13 C91.997,12.4 92.497,12 92.997,12 L101.997,12 C101.997,12 102.797,11.8 103.297,11.3 C103.772,10.8 103.997,10 103.997,10 L103.997,2 C103.997,0.9 103.097,0 101.997,0"></path>
                                        <path d="M0,11 C0,11.6 0.4,12 1,12 L17,12 C17.552,12 18,11.6 18,11 L18,5 L0,5 L0,11 M7,8 L9,8 L9,10 L7,10 L7,8 M2,8 L6,8 L6,10 L2,10 L2,8 M17,0 L1,0 C0.448,0 0,0.4 0,1 L0,3 L18,3 L18,1 C18,0.4 17.6,0 17,0"></path>
                                    </g>
                                    <polyline id="Shape" fill="#708EAC" points="111.26 6 115.997 10.7 114.734 12 109.997 7.3 105.26 12 103.997 10.7 108.734 6 103.997 1.3 105.26 0 109.997 4.7 114.734 0 115.997 1.3 111.26 6"></polyline>
                                    <polyline id="Shape-Copy" fill="#FFFFFF" points="198.263 6 203 10.7 201.737 12 197 7.3 192.263 12 191 10.7 195.737 6 191 1.3 192.263 0 197 4.7 201.737 0 203 1.3 198.263 6"></polyline>
                                    <path d="M120.44,10.2 C119.531,9.3 119.003,8.4 117.003,10.1 C114.983,11.7 116.503,12.8 117.403,13.6 C118.392,14.6 122.203,13.6 125.903,9.9 C129.652,6.2 130.603,2.4 129.603,1.4 C128.708,0.5 127.703,-1 126.003,1 C124.441,3 125.203,3.6 126.103,4.5 C126.779,5.1 125.403,6.7 124.103,8.1 C122.678,9.5 121.103,10.8 120.403,10.2 L120.44,10.2" id="Shape" fill="#2C96B9"></path>
                                    <path d="M207.436376,10.1905375 C206.527376,9.29053751 205.999376,8.39053751 203.999376,10.0905375 C201.979376,11.6905375 203.499376,12.7905375 204.399376,13.5905375 C205.388376,14.5905375 209.199376,13.5905375 212.899376,9.89053751 C216.648376,6.19053751 217.599376,2.39053751 216.599376,1.39053751 C215.704376,0.490537511 214.699376,-1.00946249 212.999376,0.990537511 C211.437376,2.99053751 212.199376,3.59053751 213.099376,4.49053751 C213.775376,5.09053751 212.399376,6.69053751 211.099376,8.09053751 C209.674376,9.49053751 208.099376,10.7905375 207.399376,10.1905375 L207.436376,10.1905375" id="Shape-Copy-2" fill="#FFFFFF"></path>
                                </g>
                                <path d="M65,9 L68,9 L68,16 L65,16 L65,9 M66.545,8 C67.373,8 68,7.3 68,6.5 C68.045,5.7 67.4,5 66.5,5 C65.717,5 65,5.7 65,6.5 C65.045,7.3 65.7,8 66.5,8 L66.545,8 M60.731,8.8 C60.323,8.1 60.1,7.3 60.1,6.2 C60.074,5.1 60.3,4.2 60.8,3.4 C61.002,3 61.2,2.7 61.4,2.6 L62.099,1.9 L60.747,0.4 L60.01,1.1 C59.733,1.3 59.4,1.8 59,2.4 C58.422,3.5 58.1,4.8 58.1,6.2 C58.074,7.7 58.4,8.9 59,9.9 C59.406,10.5 59.8,10.9 60.1,11.1 L60.914,11.7 L62.081,10 L61.269,9.5 C61.169,9.4 61,9.2 60.7,8.8 L60.731,8.8 M63.59,7.6 C63.38,7.2 63.3,6.8 63.3,6.3 C63.256,5.9 63.4,5.5 63.6,5.2 C63.746,4.9 63.9,4.8 63.9,4.7 L64.69,4.1 L63.385,2.6 L62.627,3.2 C62.429,3.4 62.2,3.7 61.9,4.1 C61.508,4.7 61.3,5.5 61.3,6.3 C61.256,7.2 61.5,7.9 61.9,8.6 C62.092,9 62.3,9.2 62.5,9.4 L63.244,10.1 L64.611,8.6 L63.881,8 C63.83,7.9 63.7,7.8 63.6,7.6 L63.59,7.6 M74.039,9.8 C74.639,8.8 74.999,7.6 74.999,6.1 C74.994,4.7 74.599,3.4 74.099,2.4 C73.705,1.7 73.299,1.3 73.099,1 L72.321,0.3 L70.969,1.8 L71.706,2.5 C71.832,2.6 72.099,2.9 72.299,3.3 C72.737,4.1 72.999,5 72.999,6.1 C72.994,7.2 72.699,8.1 72.299,8.7 C72.109,9.1 71.899,9.3 71.799,9.4 L70.986,10 L72.153,11.6 L72.965,11 C73.268,10.8 73.699,10.4 74.099,9.8 L74.039,9.8 M71.241,8.6 C71.619,7.9 71.799,7.2 71.799,6.3 C71.848,5.5 71.599,4.7 71.199,4.1 C70.93,3.7 70.699,3.4 70.499,3.2 L69.718,2.6 L68.413,4.1 L69.171,4.7 C69.229,4.8 69.399,4.9 69.499,5.2 C69.716,5.5 69.799,5.9 69.799,6.3 C69.848,6.8 69.699,7.2 69.499,7.6 C69.39,7.8 69.299,7.9 69.199,8 L68.493,8.6 L69.86,10.1 L70.59,9.4 C70.774,9.2 70.999,9 71.199,8.6 L71.241,8.6" id="Shape" fill="#FFFFFF"></path>
                                <g id="Group-Copy" transform="translate(130.000000, 0.000000)" fill="#FFFFFF">
                                    <path d="M12.7269243,15.2839894 C11.5913092,15.7438269 10.3293103,16 9,16 C4.02943725,16 0,12.418278 0,8 C0,3.581722 4.02943725,0 9,0 C13.9705627,0 18,3.581722 18,8 C18,9.65695993 17.4332881,11.1962642 16.4627556,12.4731204 L17.8617654,15.7794693 C18.2919426,16.7961284 17.8141346,17.2937596 16.7809156,16.8855727 L12.7269243,15.2839894 L12.7269243,15.2839894 L12.7269243,15.2839894 Z M7,6 C7.55228475,6 8,5.55228475 8,5 C8,4.44771525 7.55228475,4 7,4 C6.44771525,4 6,4.44771525 6,5 C6,5.55228475 6.44771525,6 7,6 L7,6 Z M11,6 C11.5522847,6 12,5.55228475 12,5 C12,4.44771525 11.5522847,4 11,4 C10.4477153,4 10,4.44771525 10,5 C10,5.55228475 10.4477153,6 11,6 L11,6 Z M9,13 C11.7614237,13 14,10.7614237 14,8 L4,8 C4,10.7614237 6.23857625,13 9,13 L9,13 Z" id="Oval-3"></path>
                                </g>
                            </g>
                        </g>
                    </g>
                    <g id="Page-1-Copy-2" transform="translate(177.000000, 0.000000)">
                        <g id="Group-3">
                            <g id="Fill-1-Clipped">
                                <mask id="mask-2" fill="white">
                                    <use xlink:href="#path-1"></use>
                                </mask>
                                <g id="path-1"></g>
                                <path d="M4.0852619,4.79918095 C5.01135714,4.98132381 6.67088095,5.16427619 8.1822619,4.60732381 C8.16202381,4.38875238 8.15392857,4.16451429 8.16202381,3.94999048 C8.19278571,3.15746667 8.81045238,2.02008571 8.9027381,1.57241905 C8.99583333,1.12394286 8.65583333,1.05513333 8.34740476,1.05513333 C8.03816667,1.05513333 7.54435714,1.4348 7.26669048,1.4348 C6.98902381,1.4348 6.83440476,0.848704762 6.74211905,0.572657143 C6.64902381,0.297419048 6.40211905,0.1938 6.03216667,0.1938 C5.66140476,0.1938 5.4452619,0.779895238 5.29145238,1.1935619 C5.13683333,1.60641905 5.01864286,1.50118095 4.51916667,1.57241905 C3.95169048,1.6525619 3.59307143,1.57241905 3.31540476,1.6760381 C3.0377381,1.77884762 3.06121429,2.1625619 3.0992619,2.33013333 C3.26845238,3.06922857 4.0852619,4.79918095 4.0852619,4.79918095" id="Fill-1" fill="#FFFFFF" mask="url(#mask-2)"></path>
                            </g>
                        </g>
                        <g id="Group-6">
                            <g id="Fill-4-Clipped">
                                <mask id="mask-4" fill="white">
                                    <use xlink:href="#path-3"></use>
                                </mask>
                                <g id="path-3"></g>
                                <path d="M7.25924286,14.3917143 L7.25924286,15.1729048 L6.26757619,15.1729048 L6.26757619,14.431381 C5.39329048,14.3528571 4.5813381,13.9545714 4.21462381,13.0956667 L5.1358619,12.7054762 C5.34714762,13.2049524 6.04171905,13.5255238 6.6893381,13.5255238 C7.39200476,13.5255238 8.04043333,13.2834762 8.04043333,12.6747143 C8.04043333,12.1590476 7.39200476,11.9720476 6.66667143,11.8854286 C5.54952857,11.7607619 4.45667143,11.5664762 4.45667143,10.269619 C4.45667143,9.24719048 5.36252857,8.77847619 6.26757619,8.67 L6.26757619,7.99080952 L7.25924286,7.99080952 L7.25924286,8.67 C7.92305238,8.77119048 8.53181429,9.02052381 8.88314762,9.73938095 L8.04043333,10.1287619 C7.83724286,9.79361905 7.25924286,9.53619048 6.72090952,9.53619048 C6.07248095,9.53619048 5.47990952,9.72319048 5.47990952,10.269619 C5.47990952,10.7852857 6.09595714,10.878381 6.75248095,10.9569048 C7.89148095,11.0977619 9.10981429,11.3009524 9.10981429,12.6747143 C9.10981429,13.7287143 8.22743333,14.3212857 7.25924286,14.3917143 M12.2394333,9.16785714 C10.7207667,6.32561905 8.57148095,5.91033333 8.37071905,5.66747619 C8.36424286,5.65938095 8.35695714,5.64319048 8.35048095,5.63266667 C7.53124286,5.9532381 6.64319524,6.17019048 5.88548095,6.17019048 C5.23705238,6.17019048 4.70438571,5.9872381 4.24700476,5.89819048 L4.24457619,5.91033333 C2.8983381,6.18719048 1.2938619,8.47490476 0.949814286,9.06342857 C0.605766667,9.6527619 -0.654661905,12.529 0.434147619,14.7122857 C1.52295714,16.896381 3.8438619,17 7.85505238,17 C11.8662429,17 12.5251952,15.2328095 12.7259571,14.7122857 C12.926719,14.1925714 13.7572905,12.0092857 12.2394333,9.16785714" id="Fill-4" fill="#FFFFFF" mask="url(#mask-4)"></path>
                            </g>
                        </g>
                    </g>
                    <g id="Page-1-Copy" transform="translate(162.000000, 0.000000)">
                        <g id="Group-3">
                            <g id="Fill-1-Clipped">
                                <mask id="mask-6" fill="white">
                                    <use xlink:href="#path-5"></use>
                                </mask>
                                <g id="path-5"></g>
                                <path d="M6.9733,15.802 C1.5853,11.916 1.0173,6.412 0.9963,4.464 C3.9353,3.703 6.1553,2.453 7.1463,1.828 C9.9123,3.483 11.9393,4.187 12.9973,4.474 C13.1003,11.056 8.5273,14.741 6.9733,15.802 M13.9653,3.669 C13.9653,3.669 11.4213,3.318 7.1243,0.643 C7.1243,0.643 4.2293,2.748 0.0193,3.669 C0.0193,3.669 -0.7257,11.913 6.9483,17 C6.9483,17 14.5783,12.79 13.9653,3.669" id="Fill-1" fill="#FFFFFF" mask="url(#mask-6)"></path>
                            </g>
                        </g>
                        <path d="M6.9845,14.5559 C3.0675,11.4299 2.1925,7.4129 2.0295,5.2139 C4.2755,4.5459 6.0545,3.6389 7.1555,2.9929 L6.9845,14.5559 Z" id="Fill-4" fill="#FFFFFF"></path>
                    </g>
                    <path d="M149,0.999960201 C149,0.447697432 149.455761,0 150.002473,0 L159.997527,0 C160.551177,0 161,0.454708934 161,0.999960201 L161,16.0000398 C161,16.5523026 160.544239,17 159.997527,17 L150.002473,17 C149.448823,17 149,16.5452911 149,16.0000398 L149,0.999960201 Z M151,2 L159,2 L159,6 L151,6 L151,2 Z M151,7 L153,7 L153,9 L151,9 L151,7 Z M151,10 L153,10 L153,12 L151,12 L151,10 Z M154,7 L156,7 L156,9 L154,9 L154,7 Z M154,10 L156,10 L156,12 L154,12 L154,10 Z M157,7 L159,7 L159,9 L157,9 L157,7 Z M157,10 L159,10 L159,15 L157,15 L157,10 Z M151,13 L153,13 L153,15 L151,15 L151,13 Z M154,13 L156,13 L156,15 L154,15 L154,13 Z" id="Rectangle-68" fill="#FFFFFF"></path>
                </g>
                <polygon id="Shape" fill="#FFFFFF" points="220 0.967844263 224.129032 4.71784426 224.487623 5.04351731 224.82449 4.69542143 228.695458 0.695421428 227.976855 0 224.105888 4 224.801345 3.97757716 220.672313 0.227577165"></polygon>
                <polygon id="Shape" fill="#FFFFFF" points="230.336156 5.12013355 234.465189 1.37013355 233.769731 1.34771071 237.640699 5.34771071 238.359301 4.65228929 234.488333 0.652289286 234.151466 0.304193406 233.792876 0.629866451 229.663844 4.37986645"></polygon>
                <polygon id="Shape" fill="#FFFFFF" points="221.967844 14.6954575 225.717844 10.5664253 226.043517 10.2078347 225.695421 9.87096774 221.695421 6 221 6.71860214 225 10.5895699 224.977577 9.89411237 221.227577 14.0231446"></polygon>
                <polygon id="Shape" fill="#FFFFFF" points="236.120134 14.0231446 232.370134 9.89411237 232.347711 10.5895699 236.347711 6.71860214 235.652289 6 231.652289 9.87096774 231.304193 10.2078347 231.629866 10.5664253 235.379866 14.6954575"></polygon>
                <g id="icon-topnav-2" transform="translate(0.000000, 21.000000)">
                    <g id="Page-1" transform="translate(58.000000, 0.000000)">
                        <g id="icon-topnav">
                            <g id="Group" transform="translate(45.000000, 0.000000)" fill="#8D9EAD">
                                <polyline id="Shape" points="8.26 6 12.997 10.7 11.734 12 6.997 7.3 2.26 12 0.997 10.7 5.734 6 0.997 1.3 2.26 0 6.997 4.7 11.734 0 12.997 1.3 8.26 6"></polyline>
                                <path d="M17.44,10.2 C16.531,9.3 16.003,8.4 14.003,10.1 C11.983,11.7 13.503,12.8 14.403,13.6 C15.392,14.6 19.203,13.6 22.903,9.9 C26.652,6.2 27.603,2.4 26.603,1.4 C25.708,0.5 24.703,-1 23.003,1 C21.441,3 22.203,3.6 23.103,4.5 C23.779,5.1 22.403,6.7 21.103,8.1 C19.678,9.5 18.103,10.8 17.403,10.2 L17.44,10.2" id="Shape"></path>
                            </g>
                            <path d="M7,9 L10,9 L10,16 L7,16 L7,9 M8.545,8 C9.373,8 10,7.3 10,6.5 C10.045,5.7 9.4,5 8.5,5 C7.717,5 7,5.7 7,6.5 C7.045,7.3 7.7,8 8.5,8 L8.545,8 M2.731,8.8 C2.323,8.1 2.1,7.3 2.1,6.2 C2.074,5.1 2.3,4.2 2.8,3.4 C3.002,3 3.2,2.7 3.4,2.6 L4.099,1.9 L2.747,0.4 L2.01,1.1 C1.733,1.3 1.4,1.8 1,2.4 C0.422,3.5 0.1,4.8 0.1,6.2 C0.074,7.7 0.4,8.9 1,9.9 C1.406,10.5 1.8,10.9 2.1,11.1 L2.914,11.7 L4.081,10 L3.269,9.5 C3.169,9.4 3,9.2 2.7,8.8 L2.731,8.8 M5.59,7.6 C5.38,7.2 5.3,6.8 5.3,6.3 C5.256,5.9 5.4,5.5 5.6,5.2 C5.746,4.9 5.9,4.8 5.9,4.7 L6.69,4.1 L5.385,2.6 L4.627,3.2 C4.429,3.4 4.2,3.7 3.9,4.1 C3.508,4.7 3.3,5.5 3.3,6.3 C3.256,7.2 3.5,7.9 3.9,8.6 C4.092,9 4.3,9.2 4.5,9.4 L5.244,10.1 L6.611,8.6 L5.881,8 C5.83,7.9 5.7,7.8 5.6,7.6 L5.59,7.6 M16.039,9.8 C16.639,8.8 16.999,7.6 16.999,6.1 C16.994,4.7 16.599,3.4 16.099,2.4 C15.705,1.7 15.299,1.3 15.099,1 L14.321,0.3 L12.969,1.8 L13.706,2.5 C13.832,2.6 14.099,2.9 14.299,3.3 C14.737,4.1 14.999,5 14.999,6.1 C14.994,7.2 14.699,8.1 14.299,8.7 C14.109,9.1 13.899,9.3 13.799,9.4 L12.986,10 L14.153,11.6 L14.965,11 C15.268,10.8 15.699,10.4 16.099,9.8 L16.039,9.8 M13.241,8.6 C13.619,7.9 13.799,7.2 13.799,6.3 C13.848,5.5 13.599,4.7 13.199,4.1 C12.93,3.7 12.699,3.4 12.499,3.2 L11.718,2.6 L10.413,4.1 L11.171,4.7 C11.229,4.8 11.399,4.9 11.499,5.2 C11.716,5.5 11.799,5.9 11.799,6.3 C11.848,6.8 11.699,7.2 11.499,7.6 C11.39,7.8 11.299,7.9 11.199,8 L10.493,8.6 L11.86,10.1 L12.59,9.4 C12.774,9.2 12.999,9 13.199,8.6 L13.241,8.6" id="Shape" fill="#8D9EAD"></path>
                            <g id="Group-Copy" transform="translate(72.000000, 0.000000)">
                                <path d="M12.7269243,15.2839894 C11.5913092,15.7438269 10.3293103,16 9,16 C4.02943725,16 0,12.418278 0,8 C0,3.581722 4.02943725,0 9,0 C13.9705627,0 18,3.581722 18,8 C18,9.65695993 17.4332881,11.1962642 16.4627556,12.4731204 L17.8617654,15.7794693 C18.2919426,16.7961284 17.8141346,17.2937596 16.7809156,16.8855727 L12.7269243,15.2839894 L12.7269243,15.2839894 L12.7269243,15.2839894 Z M7,6 C7.55228475,6 8,5.55228475 8,5 C8,4.44771525 7.55228475,4 7,4 C6.44771525,4 6,4.44771525 6,5 C6,5.55228475 6.44771525,6 7,6 L7,6 Z M11,6 C11.5522847,6 12,5.55228475 12,5 C12,4.44771525 11.5522847,4 11,4 C10.4477153,4 10,4.44771525 10,5 C10,5.55228475 10.4477153,6 11,6 L11,6 Z M9,13 C11.7614237,13 14,10.7614237 14,8 L4,8 C4,10.7614237 6.23857625,13 9,13 L9,13 Z" id="Oval-3" fill="#8D9EAD"></path>
                                <path d="M88.7269243,15.2839894 C87.5913092,15.7438269 86.3293103,16 85,16 C80.0294373,16 76,12.418278 76,8 C76,3.581722 80.0294373,0 85,0 C89.9705627,0 94,3.581722 94,8 C94,9.65695993 93.4332881,11.1962642 92.4627556,12.4731204 L93.8617654,15.7794693 C94.2919426,16.7961284 93.8141346,17.2937596 92.7809156,16.8855727 L88.7269243,15.2839894 L88.7269243,15.2839894 L88.7269243,15.2839894 Z M83,6 C83.5522847,6 84,5.55228475 84,5 C84,4.44771525 83.5522847,4 83,4 C82.4477153,4 82,4.44771525 82,5 C82,5.55228475 82.4477153,6 83,6 L83,6 Z M87,6 C87.5522847,6 88,5.55228475 88,5 C88,4.44771525 87.5522847,4 87,4 C86.4477153,4 86,4.44771525 86,5 C86,5.55228475 86.4477153,6 87,6 L87,6 Z M85,13 C87.7614237,13 90,10.7614237 90,8 L80,8 C80,10.7614237 82.2385762,13 85,13 L85,13 Z" id="Oval-3-Copy" fill="#8D9EAD"></path>
                                <path d="M122.726924,15.2839894 C121.591309,15.7438269 120.32931,16 119,16 C114.029437,16 110,12.418278 110,8 C110,3.581722 114.029437,0 119,0 C123.970563,0 128,3.581722 128,8 C128,9.65695993 127.433288,11.1962642 126.462756,12.4731204 L127.861765,15.7794693 C128.291943,16.7961284 127.814135,17.2937596 126.780916,16.8855727 L122.726924,15.2839894 L122.726924,15.2839894 L122.726924,15.2839894 Z M117,6 C117.552285,6 118,5.55228475 118,5 C118,4.44771525 117.552285,4 117,4 C116.447715,4 116,4.44771525 116,5 C116,5.55228475 116.447715,6 117,6 L117,6 Z M121,6 C121.552285,6 122,5.55228475 122,5 C122,4.44771525 121.552285,4 121,4 C120.447715,4 120,4.44771525 120,5 C120,5.55228475 120.447715,6 121,6 L121,6 Z M119,13 C121.761424,13 124,10.7614237 124,8 L114,8 C114,10.7614237 116.238576,13 119,13 L119,13 Z" id="Oval-3-Copy-3" fill="#25BDB5"></path>
                            </g>
                        </g>
                    </g>
                    <path d="M149,0.999960201 C149,0.447697432 149.455761,0 150.002473,0 L159.997527,0 C160.551177,0 161,0.454708934 161,0.999960201 L161,16.0000398 C161,16.5523026 160.544239,17 159.997527,17 L150.002473,17 C149.448823,17 149,16.5452911 149,16.0000398 L149,0.999960201 Z M151,2 L159,2 L159,6 L151,6 L151,2 Z M151,7 L153,7 L153,9 L151,9 L151,7 Z M151,10 L153,10 L153,12 L151,12 L151,10 Z M154,7 L156,7 L156,9 L154,9 L154,7 Z M154,10 L156,10 L156,12 L154,12 L154,10 Z M157,7 L159,7 L159,9 L157,9 L157,7 Z M157,10 L159,10 L159,15 L157,15 L157,10 Z M151,13 L153,13 L153,15 L151,15 L151,13 Z M154,13 L156,13 L156,15 L154,15 L154,13 Z" id="Rectangle-68-Copy" fill="#8D9EAD"></path>
                    <g id="Page-1-Copy-3" transform="translate(162.000000, 0.000000)">
                        <g id="Group-3">
                            <g id="Fill-1-Clipped">
                                <mask id="mask-8" fill="white">
                                    <use xlink:href="#path-7"></use>
                                </mask>
                                <g id="path-7"></g>
                                <path d="M6.9733,15.802 C1.5853,11.916 1.0173,6.412 0.9963,4.464 C3.9353,3.703 6.1553,2.453 7.1463,1.828 C9.9123,3.483 11.9393,4.187 12.9973,4.474 C13.1003,11.056 8.5273,14.741 6.9733,15.802 M13.9653,3.669 C13.9653,3.669 11.4213,3.318 7.1243,0.643 C7.1243,0.643 4.2293,2.748 0.0193,3.669 C0.0193,3.669 -0.7257,11.913 6.9483,17 C6.9483,17 14.5783,12.79 13.9653,3.669" id="Fill-1" fill="#8D9EAD" mask="url(#mask-8)"></path>
                            </g>
                        </g>
                        <path d="M6.9845,14.5559 C3.0675,11.4299 2.1925,7.4129 2.0295,5.2139 C4.2755,4.5459 6.0545,3.6389 7.1555,2.9929 L6.9845,14.5559 Z" id="Fill-4" fill="#8D9EAD"></path>
                    </g>
                    <g id="Page-1-Copy-4" transform="translate(177.000000, 0.000000)">
                        <g id="Group-3">
                            <g id="Fill-1-Clipped">
                                <mask id="mask-10" fill="white">
                                    <use xlink:href="#path-9"></use>
                                </mask>
                                <g id="path-9"></g>
                                <path d="M4.0852619,4.79918095 C5.01135714,4.98132381 6.67088095,5.16427619 8.1822619,4.60732381 C8.16202381,4.38875238 8.15392857,4.16451429 8.16202381,3.94999048 C8.19278571,3.15746667 8.81045238,2.02008571 8.9027381,1.57241905 C8.99583333,1.12394286 8.65583333,1.05513333 8.34740476,1.05513333 C8.03816667,1.05513333 7.54435714,1.4348 7.26669048,1.4348 C6.98902381,1.4348 6.83440476,0.848704762 6.74211905,0.572657143 C6.64902381,0.297419048 6.40211905,0.1938 6.03216667,0.1938 C5.66140476,0.1938 5.4452619,0.779895238 5.29145238,1.1935619 C5.13683333,1.60641905 5.01864286,1.50118095 4.51916667,1.57241905 C3.95169048,1.6525619 3.59307143,1.57241905 3.31540476,1.6760381 C3.0377381,1.77884762 3.06121429,2.1625619 3.0992619,2.33013333 C3.26845238,3.06922857 4.0852619,4.79918095 4.0852619,4.79918095" id="Fill-1" fill="#8D9EAD" mask="url(#mask-10)"></path>
                            </g>
                        </g>
                        <g id="Group-6">
                            <g id="Fill-4-Clipped">
                                <mask id="mask-12" fill="white">
                                    <use xlink:href="#path-11"></use>
                                </mask>
                                <g id="path-11"></g>
                                <path d="M7.25924286,14.3917143 L7.25924286,15.1729048 L6.26757619,15.1729048 L6.26757619,14.431381 C5.39329048,14.3528571 4.5813381,13.9545714 4.21462381,13.0956667 L5.1358619,12.7054762 C5.34714762,13.2049524 6.04171905,13.5255238 6.6893381,13.5255238 C7.39200476,13.5255238 8.04043333,13.2834762 8.04043333,12.6747143 C8.04043333,12.1590476 7.39200476,11.9720476 6.66667143,11.8854286 C5.54952857,11.7607619 4.45667143,11.5664762 4.45667143,10.269619 C4.45667143,9.24719048 5.36252857,8.77847619 6.26757619,8.67 L6.26757619,7.99080952 L7.25924286,7.99080952 L7.25924286,8.67 C7.92305238,8.77119048 8.53181429,9.02052381 8.88314762,9.73938095 L8.04043333,10.1287619 C7.83724286,9.79361905 7.25924286,9.53619048 6.72090952,9.53619048 C6.07248095,9.53619048 5.47990952,9.72319048 5.47990952,10.269619 C5.47990952,10.7852857 6.09595714,10.878381 6.75248095,10.9569048 C7.89148095,11.0977619 9.10981429,11.3009524 9.10981429,12.6747143 C9.10981429,13.7287143 8.22743333,14.3212857 7.25924286,14.3917143 M12.2394333,9.16785714 C10.7207667,6.32561905 8.57148095,5.91033333 8.37071905,5.66747619 C8.36424286,5.65938095 8.35695714,5.64319048 8.35048095,5.63266667 C7.53124286,5.9532381 6.64319524,6.17019048 5.88548095,6.17019048 C5.23705238,6.17019048 4.70438571,5.9872381 4.24700476,5.89819048 L4.24457619,5.91033333 C2.8983381,6.18719048 1.2938619,8.47490476 0.949814286,9.06342857 C0.605766667,9.6527619 -0.654661905,12.529 0.434147619,14.7122857 C1.52295714,16.896381 3.8438619,17 7.85505238,17 C11.8662429,17 12.5251952,15.2328095 12.7259571,14.7122857 C12.926719,14.1925714 13.7572905,12.0092857 12.2394333,9.16785714" id="Fill-4" fill="#8D9EAD" mask="url(#mask-12)"></path>
                            </g>
                        </g>
                    </g>
                    <path d="M203.004,0 L203.004,6 L201.492,5 L200.004,6 L200.004,0 L193.01,0 C191.901,0 191,0.9 191,2 L191,14 C191,15.1 191.9,16 193,16 L202.988,16 C204.103,16 204.998,15.1 204.998,14 L194.001,14 C193.447,14 193.001,13.6 193.001,13 C193.001,12.4 193.501,12 194.001,12 L203.001,12 C203.001,12 203.801,11.8 204.301,11.3 C204.776,10.8 205.001,10 205.001,10 L205.001,2 C205.001,0.9 204.101,0 203.001,0" id="Shape-Copy-3" fill="#8D9EAD"></path>
                    <path d="M57,0 L41,0 C40.448,0 40,0.4 40,1 L40,11 C40,11.6 40.4,12 41,12 L57,12 C57.552,12 58,11.6 58,11 L58,1 C58,0.4 57.6,0 57,0 M57,8 C57,8.6 56.6,9 56,9 L42,9 C41.448,9 41,8.6 41,8 L41,2 C41,1.4 41.4,1 42,1 L56,1 C56.552,1 57,1.4 57,2 L57,8 M42,8 L56,8 L56,2 L42,2 L42,8 M49,3 C50.105,3 51,3.9 51,5 C51,6.1 50.1,7 49,7 C47.895,7 47,6.1 47,5 C47,3.9 47.9,3 49,3" id="Shape" fill="#8D9EAD"></path>
                    <path d="M102,0 L102,6 L100.488,5 L99,6 L99,0 L92.006,0 C90.897,0 89.996,0.9 89.996,2 L89.996,14 C89.996,15.1 90.896,16 91.996,16 L101.984,16 C103.099,16 103.994,15.1 103.994,14 L92.997,14 C92.443,14 91.997,13.6 91.997,13 C91.997,12.4 92.497,12 92.997,12 L101.997,12 C101.997,12 102.797,11.8 103.297,11.3 C103.772,10.8 103.997,10 103.997,10 L103.997,2 C103.997,0.9 103.097,0 101.997,0" id="Shape" fill="#8D9EAD"></path>
                    <path d="M76,2 L78,2 L78,0 L76,0 L76,2 M76,6 L78,6 L78,4 L76,4 L76,6 M80,0 L80,2 L90,2 L90,0 L80,0 M80,6 L88,6 L88,4 L80,4 L80,6 M76,10 L78,10 L78,8 L76,8 L76,10 M80,10 L88,10 L88,8 L80,8 L80,10" id="Shape" fill="#8D9EAD"></path>
                    <path d="M36,6.1 L36,1 L34,1 L34,4.1 L30.616,0.8 C30.218,0.5 29.7,0.3 29.2,0.2 L29,0 L28.85,0.2 C28.324,0.2 27.8,0.4 27.4,0.8 L19,9.1 L20.047,10.2 L25.826,4.5 L22,10 L22,15 C22,15.5 22.5,16 23,16 L27,16 L27,11 L31,11 L31,16 L34.991,16 C35.548,16 36.001,15.6 36.001,15 L36.001,8.2 L38.029,10.2 L39.001,9 L36.001,6.1" id="Shape" fill="#8D9EAD"></path>
                    <path d="M0,11 C0,11.6 0.4,12 1,12 L17,12 C17.552,12 18,11.6 18,11 L18,5 L0,5 L0,11 M7,8 L9,8 L9,10 L7,10 L7,8 M2,8 L6,8 L6,10 L2,10 L2,8 M17,0 L1,0 C0.448,0 0,0.4 0,1 L0,3 L18,3 L18,1 C18,0.4 17.6,0 17,0" id="Shape" fill="#8D9EAD"></path>
                    <path d="M237.004,0 L237.004,6 L235.492,5 L234.004,6 L234.004,0 L227.01,0 C225.901,0 225,0.9 225,2 L225,14 C225,15.1 225.9,16 227,16 L236.988,16 C238.103,16 238.998,15.1 238.998,14 L228.001,14 C227.447,14 227.001,13.6 227.001,13 C227.001,12.4 227.501,12 228.001,12 L237.001,12 C237.001,12 237.801,11.8 238.301,11.3 C238.776,10.8 239.001,10 239.001,10 L239.001,2 C239.001,0.9 238.101,0 237.001,0" id="Shape-Copy-5" fill="#3A9AC3"></path>
                    <path d="M272.004,0 L272.004,6 L270.492,5 L269.004,6 L269.004,0 L262.01,0 C260.901,0 260,0.9 260,2 L260,14 C260,15.1 260.9,16 262,16 L271.988,16 C273.103,16 273.998,15.1 273.998,14 L263.001,14 C262.447,14 262.001,13.6 262.001,13 C262.001,12.4 262.501,12 263.001,12 L272.001,12 C272.001,12 272.801,11.8 273.301,11.3 C273.776,10.8 274.001,10 274.001,10 L274.001,2 C274.001,0.9 273.101,0 272.001,0" id="Shape-Copy-6" fill="#EF6700"></path>
                </g>
                <g id="icon-topnav-3" transform="translate(0.000000, 42.000000)">
                    <g id="icon-topnav" fill="#193D5A">
                        <g id="Page-1">
                            <g id="icon-topnav">
                                <g id="Group">
                                    <g id="Shape">
                                        <path d="M36,6.1 L36,1 L34,1 L34,4.1 L30.616,0.8 C30.218,0.5 29.7,0.3 29.2,0.2 L29,0 L28.85,0.2 C28.324,0.2 27.8,0.4 27.4,0.8 L19,9.1 L20.047,10.2 L25.826,4.5 L22,10 L22,15 C22,15.5 22.5,16 23,16 L27,16 L27,11 L31,11 L31,16 L34.991,16 C35.548,16 36.001,15.6 36.001,15 L36.001,8.2 L38.029,10.2 L39.001,9 L36.001,6.1"></path>
                                        <path d="M57,0 L41,0 C40.448,0 40,0.4 40,1 L40,11 C40,11.6 40.4,12 41,12 L57,12 C57.552,12 58,11.6 58,11 L58,1 C58,0.4 57.6,0 57,0 M57,8 C57,8.6 56.6,9 56,9 L42,9 C41.448,9 41,8.6 41,8 L41,2 C41,1.4 41.4,1 42,1 L56,1 C56.552,1 57,1.4 57,2 L57,8 M42,8 L56,8 L56,2 L42,2 L42,8 M49,3 C50.105,3 51,3.9 51,5 C51,6.1 50.1,7 49,7 C47.895,7 47,6.1 47,5 C47,3.9 47.9,3 49,3"></path>
                                        <path d="M76,2 L78,2 L78,0 L76,0 L76,2 M76,6 L78,6 L78,4 L76,4 L76,6 M80,0 L80,2 L90,2 L90,0 L80,0 M80,6 L88,6 L88,4 L80,4 L80,6 M76,10 L78,10 L78,8 L76,8 L76,10 M80,10 L88,10 L88,8 L80,8 L80,10"></path>
                                        <path d="M102,0 L102,6 L100.488,5 L99,6 L99,0 L92.006,0 C90.897,0 89.996,0.9 89.996,2 L89.996,14 C89.996,15.1 90.896,16 91.996,16 L101.984,16 C103.099,16 103.994,15.1 103.994,14 L92.997,14 C92.443,14 91.997,13.6 91.997,13 C91.997,12.4 92.497,12 92.997,12 L101.997,12 C101.997,12 102.797,11.8 103.297,11.3 C103.772,10.8 103.997,10 103.997,10 L103.997,2 C103.997,0.9 103.097,0 101.997,0"></path>
                                        <path d="M0,11 C0,11.6 0.4,12 1,12 L17,12 C17.552,12 18,11.6 18,11 L18,5 L0,5 L0,11 M7,8 L9,8 L9,10 L7,10 L7,8 M2,8 L6,8 L6,10 L2,10 L2,8 M17,0 L1,0 C0.448,0 0,0.4 0,1 L0,3 L18,3 L18,1 C18,0.4 17.6,0 17,0"></path>
                                    </g>
                                    <polyline id="Shape" points="111.26 6 115.997 10.7 114.734 12 109.997 7.3 105.26 12 103.997 10.7 108.734 6 103.997 1.3 105.26 0 109.997 4.7 114.734 0 115.997 1.3 111.26 6"></polyline>
                                    <path d="M120.44,10.2 C119.531,9.3 119.003,8.4 117.003,10.1 C114.983,11.7 116.503,12.8 117.403,13.6 C118.392,14.6 122.203,13.6 125.903,9.9 C129.652,6.2 130.603,2.4 129.603,1.4 C128.708,0.5 127.703,-1 126.003,1 C124.441,3 125.203,3.6 126.103,4.5 C126.779,5.1 125.403,6.7 124.103,8.1 C122.678,9.5 121.103,10.8 120.403,10.2 L120.44,10.2" id="Shape"></path>
                                </g>
                                <path d="M65,9 L68,9 L68,16 L65,16 L65,9 M66.545,8 C67.373,8 68,7.3 68,6.5 C68.045,5.7 67.4,5 66.5,5 C65.717,5 65,5.7 65,6.5 C65.045,7.3 65.7,8 66.5,8 L66.545,8 M60.731,8.8 C60.323,8.1 60.1,7.3 60.1,6.2 C60.074,5.1 60.3,4.2 60.8,3.4 C61.002,3 61.2,2.7 61.4,2.6 L62.099,1.9 L60.747,0.4 L60.01,1.1 C59.733,1.3 59.4,1.8 59,2.4 C58.422,3.5 58.1,4.8 58.1,6.2 C58.074,7.7 58.4,8.9 59,9.9 C59.406,10.5 59.8,10.9 60.1,11.1 L60.914,11.7 L62.081,10 L61.269,9.5 C61.169,9.4 61,9.2 60.7,8.8 L60.731,8.8 M63.59,7.6 C63.38,7.2 63.3,6.8 63.3,6.3 C63.256,5.9 63.4,5.5 63.6,5.2 C63.746,4.9 63.9,4.8 63.9,4.7 L64.69,4.1 L63.385,2.6 L62.627,3.2 C62.429,3.4 62.2,3.7 61.9,4.1 C61.508,4.7 61.3,5.5 61.3,6.3 C61.256,7.2 61.5,7.9 61.9,8.6 C62.092,9 62.3,9.2 62.5,9.4 L63.244,10.1 L64.611,8.6 L63.881,8 C63.83,7.9 63.7,7.8 63.6,7.6 L63.59,7.6 M74.039,9.8 C74.639,8.8 74.999,7.6 74.999,6.1 C74.994,4.7 74.599,3.4 74.099,2.4 C73.705,1.7 73.299,1.3 73.099,1 L72.321,0.3 L70.969,1.8 L71.706,2.5 C71.832,2.6 72.099,2.9 72.299,3.3 C72.737,4.1 72.999,5 72.999,6.1 C72.994,7.2 72.699,8.1 72.299,8.7 C72.109,9.1 71.899,9.3 71.799,9.4 L70.986,10 L72.153,11.6 L72.965,11 C73.268,10.8 73.699,10.4 74.099,9.8 L74.039,9.8 M71.241,8.6 C71.619,7.9 71.799,7.2 71.799,6.3 C71.848,5.5 71.599,4.7 71.199,4.1 C70.93,3.7 70.699,3.4 70.499,3.2 L69.718,2.6 L68.413,4.1 L69.171,4.7 C69.229,4.8 69.399,4.9 69.499,5.2 C69.716,5.5 69.799,5.9 69.799,6.3 C69.848,6.8 69.699,7.2 69.499,7.6 C69.39,7.8 69.299,7.9 69.199,8 L68.493,8.6 L69.86,10.1 L70.59,9.4 C70.774,9.2 70.999,9 71.199,8.6 L71.241,8.6" id="Shape"></path>
                                <g id="Group-Copy" transform="translate(130.000000, 0.000000)">
                                    <path d="M12.7269243,15.2839894 C11.5913092,15.7438269 10.3293103,16 9,16 C4.02943725,16 0,12.418278 0,8 C0,3.581722 4.02943725,0 9,0 C13.9705627,0 18,3.581722 18,8 C18,9.65695993 17.4332881,11.1962642 16.4627556,12.4731204 L17.8617654,15.7794693 C18.2919426,16.7961284 17.8141346,17.2937596 16.7809156,16.8855727 L12.7269243,15.2839894 L12.7269243,15.2839894 L12.7269243,15.2839894 Z M7,6 C7.55228475,6 8,5.55228475 8,5 C8,4.44771525 7.55228475,4 7,4 C6.44771525,4 6,4.44771525 6,5 C6,5.55228475 6.44771525,6 7,6 L7,6 Z M11,6 C11.5522847,6 12,5.55228475 12,5 C12,4.44771525 11.5522847,4 11,4 C10.4477153,4 10,4.44771525 10,5 C10,5.55228475 10.4477153,6 11,6 L11,6 Z M9,13 C11.7614237,13 14,10.7614237 14,8 L4,8 C4,10.7614237 6.23857625,13 9,13 L9,13 Z" id="Oval-3"></path>
                                </g>
                            </g>
                        </g>
                    </g>
                    <path d="M149,0.999960201 C149,0.447697432 149.455761,0 150.002473,0 L159.997527,0 C160.551177,0 161,0.454708934 161,0.999960201 L161,16.0000398 C161,16.5523026 160.544239,17 159.997527,17 L150.002473,17 C149.448823,17 149,16.5452911 149,16.0000398 L149,0.999960201 Z M151,2 L159,2 L159,6 L151,6 L151,2 Z M151,7 L153,7 L153,9 L151,9 L151,7 Z M151,10 L153,10 L153,12 L151,12 L151,10 Z M154,7 L156,7 L156,9 L154,9 L154,7 Z M154,10 L156,10 L156,12 L154,12 L154,10 Z M157,7 L159,7 L159,9 L157,9 L157,7 Z M157,10 L159,10 L159,15 L157,15 L157,10 Z M151,13 L153,13 L153,15 L151,15 L151,13 Z M154,13 L156,13 L156,15 L154,15 L154,13 Z" id="Rectangle-68-Copy-2" fill="#193D5A"></path>
                    <g id="Page-1-Copy-6" transform="translate(162.000000, 0.000000)">
                        <g id="Group-3">
                            <g id="Fill-1-Clipped">
                                <mask id="mask-14" fill="white">
                                    <use xlink:href="#path-13"></use>
                                </mask>
                                <g id="path-13"></g>
                                <path d="M6.9733,15.802 C1.5853,11.916 1.0173,6.412 0.9963,4.464 C3.9353,3.703 6.1553,2.453 7.1463,1.828 C9.9123,3.483 11.9393,4.187 12.9973,4.474 C13.1003,11.056 8.5273,14.741 6.9733,15.802 M13.9653,3.669 C13.9653,3.669 11.4213,3.318 7.1243,0.643 C7.1243,0.643 4.2293,2.748 0.0193,3.669 C0.0193,3.669 -0.7257,11.913 6.9483,17 C6.9483,17 14.5783,12.79 13.9653,3.669" id="Fill-1" fill="#193D5A" mask="url(#mask-14)"></path>
                            </g>
                        </g>
                        <path d="M6.9845,14.5559 C3.0675,11.4299 2.1925,7.4129 2.0295,5.2139 C4.2755,4.5459 6.0545,3.6389 7.1555,2.9929 L6.9845,14.5559 Z" id="Fill-4" fill="#193D5A"></path>
                    </g>
                    <g id="Page-1-Copy-5" transform="translate(177.000000, 0.000000)">
                        <g id="Group-3">
                            <g id="Fill-1-Clipped">
                                <mask id="mask-16" fill="white">
                                    <use xlink:href="#path-15"></use>
                                </mask>
                                <g id="path-15"></g>
                                <path d="M4.0852619,4.79918095 C5.01135714,4.98132381 6.67088095,5.16427619 8.1822619,4.60732381 C8.16202381,4.38875238 8.15392857,4.16451429 8.16202381,3.94999048 C8.19278571,3.15746667 8.81045238,2.02008571 8.9027381,1.57241905 C8.99583333,1.12394286 8.65583333,1.05513333 8.34740476,1.05513333 C8.03816667,1.05513333 7.54435714,1.4348 7.26669048,1.4348 C6.98902381,1.4348 6.83440476,0.848704762 6.74211905,0.572657143 C6.64902381,0.297419048 6.40211905,0.1938 6.03216667,0.1938 C5.66140476,0.1938 5.4452619,0.779895238 5.29145238,1.1935619 C5.13683333,1.60641905 5.01864286,1.50118095 4.51916667,1.57241905 C3.95169048,1.6525619 3.59307143,1.57241905 3.31540476,1.6760381 C3.0377381,1.77884762 3.06121429,2.1625619 3.0992619,2.33013333 C3.26845238,3.06922857 4.0852619,4.79918095 4.0852619,4.79918095" id="Fill-1" fill="#193D5A" mask="url(#mask-16)"></path>
                            </g>
                        </g>
                        <g id="Group-6">
                            <g id="Fill-4-Clipped">
                                <mask id="mask-18" fill="white">
                                    <use xlink:href="#path-17"></use>
                                </mask>
                                <g id="path-17"></g>
                                <path d="M7.25924286,14.3917143 L7.25924286,15.1729048 L6.26757619,15.1729048 L6.26757619,14.431381 C5.39329048,14.3528571 4.5813381,13.9545714 4.21462381,13.0956667 L5.1358619,12.7054762 C5.34714762,13.2049524 6.04171905,13.5255238 6.6893381,13.5255238 C7.39200476,13.5255238 8.04043333,13.2834762 8.04043333,12.6747143 C8.04043333,12.1590476 7.39200476,11.9720476 6.66667143,11.8854286 C5.54952857,11.7607619 4.45667143,11.5664762 4.45667143,10.269619 C4.45667143,9.24719048 5.36252857,8.77847619 6.26757619,8.67 L6.26757619,7.99080952 L7.25924286,7.99080952 L7.25924286,8.67 C7.92305238,8.77119048 8.53181429,9.02052381 8.88314762,9.73938095 L8.04043333,10.1287619 C7.83724286,9.79361905 7.25924286,9.53619048 6.72090952,9.53619048 C6.07248095,9.53619048 5.47990952,9.72319048 5.47990952,10.269619 C5.47990952,10.7852857 6.09595714,10.878381 6.75248095,10.9569048 C7.89148095,11.0977619 9.10981429,11.3009524 9.10981429,12.6747143 C9.10981429,13.7287143 8.22743333,14.3212857 7.25924286,14.3917143 M12.2394333,9.16785714 C10.7207667,6.32561905 8.57148095,5.91033333 8.37071905,5.66747619 C8.36424286,5.65938095 8.35695714,5.64319048 8.35048095,5.63266667 C7.53124286,5.9532381 6.64319524,6.17019048 5.88548095,6.17019048 C5.23705238,6.17019048 4.70438571,5.9872381 4.24700476,5.89819048 L4.24457619,5.91033333 C2.8983381,6.18719048 1.2938619,8.47490476 0.949814286,9.06342857 C0.605766667,9.6527619 -0.654661905,12.529 0.434147619,14.7122857 C1.52295714,16.896381 3.8438619,17 7.85505238,17 C11.8662429,17 12.5251952,15.2328095 12.7259571,14.7122857 C12.926719,14.1925714 13.7572905,12.0092857 12.2394333,9.16785714" id="Fill-4" fill="#193D5A" mask="url(#mask-18)"></path>
                            </g>
                        </g>
                    </g>
                    <g id="meter" transform="translate(226.000000, 1.000000)">
                        <g id="Group-2">
                            <g id="Mask" fill="#D7DCDF">
                                <path d="M29.527282,11.2706722 C27.8697131,4.83330197 21.983825,0.0671441249 14.976896,0.0671441249 C8.08501797,0.0671441249 2.27759936,4.6688011 0.511528084,10.9455898 C0.152487894,12.2219552 0.0580987124,13.8655082 0.0580987124,13.8655082 C0.000629700912,14.4810706 0.0021642966,14.9645449 0.0021642966,14.9645449 L8.97857026,14.9645446 C8.97857026,14.9645446 9.20430533,13.1799302 9.58161261,12.3996551 C10.5474648,10.4022634 12.6004027,9.07045907 14.976896,9.07045907 C17.4230166,9.07045907 19.5263448,10.4814459 20.4542544,12.576913 C20.7800092,13.3125543 20.9465766,14.9645446 20.9465766,14.9645446 L29.9427999,14.9645449 C29.9427999,14.9645449 29.9528236,14.4805107 29.9026935,13.8646123 C29.9026935,13.8646123 29.8315629,12.4526372 29.527282,11.2706722 Z" id="path-19"></path>
                            </g>
                            <g id="Path-Clipped">
                                <mask id="mask-20" fill="white">
                                    <use xlink:href="#path-19"></use>
                                </mask>
                                <g id="path-19"></g>
                                <polygon id="Path" fill="#FABE60" mask="url(#mask-20)" points="3.88583469 2.41098302 11.4967589 -1.30111273 14.8810833 14.9893267"></polygon>
                            </g>
                            <g id="Path-Clipped">
                                <mask id="mask-22" fill="white">
                                    <use xlink:href="#path-21"></use>
                                </mask>
                                <g id="path-19"></g>
                                <polygon id="Path" fill="#FAA060" mask="url(#mask-22)" points="-0.59921483 8.27614531 4.72982556 1.69532848 14.6817024 15.0292033"></polygon>
                            </g>
                            <g id="Path-Clipped">
                                <mask id="mask-24" fill="white">
                                    <use xlink:href="#path-23"></use>
                                </mask>
                                <g id="path-19"></g>
                                <polygon id="Path" fill="#EC6A4B" mask="url(#mask-24)" points="-2.34813094 15.4806079 -0.443261382 7.22971139 14.3466123 14.851503"></polygon>
                            </g>
                            <g id="Path-Clipped">
                                <mask id="mask-26" fill="white">
                                    <use xlink:href="#path-25"></use>
                                </mask>
                                <g id="path-19"></g>
                                <polygon id="Path" fill="#ABC762" mask="url(#mask-26)" points="30.3774099 7.00574833 32.2822795 15.2566449 15.6480556 14.8896778"></polygon>
                            </g>
                            <g id="Path-Clipped">
                                <mask id="mask-28" fill="white">
                                    <use xlink:href="#path-27"></use>
                                </mask>
                                <g id="path-19"></g>
                                <polygon id="Path" fill="#BAD477" mask="url(#mask-28)" points="25.3090351 1.24740236 30.6380754 7.82821919 15.5264663 14.7903552"></polygon>
                            </g>
                            <g id="Path-Clipped">
                                <mask id="mask-30" fill="white">
                                    <use xlink:href="#path-29"></use>
                                </mask>
                                <g id="path-19"></g>
                                <polygon id="Path" fill="#CFD582" mask="url(#mask-30)" points="18.5903069 -1.52507578 26.2012311 2.18701996 15.4477879 14.8833"></polygon>
                            </g>
                            <g id="Path-Clipped">
                                <mask id="mask-32" fill="white">
                                    <use xlink:href="#path-31"></use>
                                </mask>
                                <g id="path-19"></g>
                                <polygon id="Path" fill="#FAD760" mask="url(#mask-32)" points="10.7793662 -1.34377835 19.2472952 -1.34377835 15.1478473 14.7815619"></polygon>
                            </g>
                            <g id="Shape-Clipped">
                                <mask id="mask-34" fill="white">
                                    <use xlink:href="#path-33"></use>
                                </mask>
                                <g id="path-19"></g>
                                <path d="M14.9568778,27.7392574 L14.9568778,27.7392574 C22.1109944,27.7392574 27.9099914,21.9877281 27.9099914,14.8935434 C27.9099914,7.79935871 22.1109944,2.0478294 14.9568778,2.0478294 C7.80276131,2.0478294 2.00376426,7.79935871 2.00376426,14.8935434 C2.00376426,21.9877281 7.80276131,27.7392574 14.9568778,27.7392574 L14.9568778,27.7392574 Z M14.9568778,30.2350129 L14.9568778,30.2350129 C6.41409114,30.2350129 -0.5112058,23.366403 -0.5112058,14.8935434 C-0.5112058,6.42068374 6.41409114,-0.447926117 14.9568778,-0.447926117 C23.4996645,-0.447926117 30.4249615,6.42068374 30.4249615,14.8935434 C30.4249615,23.366403 23.4996645,30.2350129 14.9568778,30.2350129 L14.9568778,30.2350129 Z" id="Shape" fill="#EEF4F4" mask="url(#mask-34)"></path>
                            </g>
                        </g>
                        <g id="needle" transform="translate(17.038551, 11.969750) rotate(29.000000) translate(-17.038551, -11.969750) translate(15.538551, 6.969750)">
                            <g id="Mask" fill="#324149">
                                <path d="M1.2945602,-5.68434189e-14 L2.48574668,8.12231084 C2.58830151,8.82159869 2.10738118,9.3884835 1.39198457,9.3884835 L1.16356449,9.3884835 C0.456941524,9.3884835 -0.031883435,8.82930709 0.0743299595,8.12231084 L1.2945602,-5.68434189e-14 Z" id="path-21"></path>
                            </g>
                            <g id="Rectangle-141-Copy-Clipped">
                                <mask id="mask-36" fill="white">
                                    <use xlink:href="#path-35"></use>
                                </mask>
                                <g id="path-21"></g>
                                <path d="M1.2945602,-4.11226608e-13 L2.5768002,8.74317501 C2.62906756,9.09956905 2.39122018,9.3884835 2.02626053,9.3884835 L1.35011646,9.3884835 L1.2945602,-4.11226608e-13 Z" id="Rectangle-141-Copy" fill="#263035" mask="url(#mask-36)"></path>
                            </g>
                            <g id="Oval-35-Clipped">
                                <mask id="mask-38" fill="white">
                                    <use xlink:href="#path-37"></use>
                                </mask>
                                <g id="path-21"></g>
                                <ellipse id="Oval-35" fill="#4E5D65" mask="url(#mask-38)" cx="1.33307001" cy="8.18483177" rx="0.484752731" ry="0.481460692"></ellipse>
                            </g>
                        </g>
                    </g>
                    <g id="Shape" transform="translate(191.000000, 0.000000)" fill="#193D5A">
                        <path d="M12.004,0 L12.004,6 L10.492,5 L9.004,6 L9.004,0 L2.01,0 C0.901,0 0,0.9 0,2 L0,14 C0,15.1 0.9,16 2,16 L11.988,16 C13.103,16 13.998,15.1 13.998,14 L3.001,14 C2.447,14 2.001,13.6 2.001,13 C2.001,12.4 2.501,12 3.001,12 L12.001,12 C12.001,12 12.801,11.8 13.301,11.3 C13.776,10.8 14.001,10 14.001,10 L14.001,2 C14.001,0.9 13.101,0 12.001,0" id="Shape-Copy-4"></path>
                    </g>
                    <path d="M218.726924,15.2839894 C217.591309,15.7438269 216.32931,16 215,16 C210.029437,16 206,12.418278 206,8 C206,3.581722 210.029437,0 215,0 C219.970563,0 224,3.581722 224,8 C224,9.65695993 223.433288,11.1962642 222.462756,12.4731204 L223.861765,15.7794693 C224.291943,16.7961284 223.814135,17.2937596 222.780916,16.8855727 L218.726924,15.2839894 L218.726924,15.2839894 L218.726924,15.2839894 Z M213,6 C213.552285,6 214,5.55228475 214,5 C214,4.44771525 213.552285,4 213,4 C212.447715,4 212,4.44771525 212,5 C212,5.55228475 212.447715,6 213,6 L213,6 Z M217,6 C217.552285,6 218,5.55228475 218,5 C218,4.44771525 217.552285,4 217,4 C216.447715,4 216,4.44771525 216,5 C216,5.55228475 216.447715,6 217,6 L217,6 Z M215,13 C217.761424,13 220,10.7614237 220,8 L210,8 C210,10.7614237 212.238576,13 215,13 L215,13 Z" id="Oval-3-Copy-2" fill="#193D5A"></path>
                </g>
                <g id="Group-2" transform="translate(260.000000, 44.000000)">
                    <mask id="mask-40" fill="white">
                        <use xlink:href="#path-39"></use>
                    </mask>
                    <use id="Oval" fill="#EFEFEF" xlink:href="#path-39"></use>
                    <rect id="Rectangle" fill="#1E5D97" mask="url(#mask-40)" x="-1" y="0" width="17" height="8"></rect>
                    <rect id="Rectangle-Copy" fill="#F95757" mask="url(#mask-40)" x="-1" y="8" width="17" height="2"></rect>
                    <rect id="Rectangle-Copy-2" fill="#F95757" mask="url(#mask-40)" x="-1" y="12" width="17" height="2"></rect>
                    <rect id="Rectangle-Copy-3" fill="#F95757" mask="url(#mask-40)" x="-1" y="14" width="17" height="2"></rect>
                    <path d="M7.10407366,7.1749442 C7.10407366,7.1749442 3.55956181,7.47409108 3.55956181,4.5874721 C3.55956181,1.70085312 7.10407366,2 7.10407366,2 C7.10407366,2 5.31375558,2.35202031 5.31375558,4.56951473 C5.31375558,6.78700915 7.10407366,7.1749442 7.10407366,7.1749442 Z" id="Path-2" fill="#F6CB67" mask="url(#mask-40)"></path>
                    <polygon id="Star" fill="#F6CB67" mask="url(#mask-40)" points="9.5 5.75 8.72745751 6.87764129 8.76526843 5.51127124 7.47745751 5.96946313 8.31117935 4.88627124 7 4.5 8.31117935 4.11372876 7.47745751 3.03053687 8.76526843 3.48872876 8.72745751 2.12235871 9.5 3.25 10.2725425 2.12235871 10.2347316 3.48872876 11.5225425 3.03053687 10.6888206 4.11372876 12 4.5 10.6888206 4.88627124 11.5225425 5.96946313 10.2347316 5.51127124 10.2725425 6.87764129"></polygon>
                </g>
                <g id="Group-3" transform="translate(280.000000, 44.000000)">
                    <mask id="mask-42" fill="white">
                        <use xlink:href="#path-41"></use>
                    </mask>
                    <use id="Oval-Copy" fill="#1E5D97" xlink:href="#path-41"></use>
                    <rect id="Rectangle-2-Copy-3" fill="#FFFFFF" mask="url(#mask-42)" transform="translate(7.785534, 7.588835) rotate(-45.000000) translate(-7.785534, -7.588835) " x="-0.560660172" y="6.33883476" width="16.6923882" height="2.5"></rect>
                    <rect id="Rectangle-2-Copy-2" fill="#F85757" mask="url(#mask-42)" transform="translate(7.656854, 7.656854) rotate(-45.000000) translate(-7.656854, -7.656854) " x="0.156854249" y="7.15685425" width="15" height="1"></rect>
                    <rect id="Rectangle-2-Copy-5" fill="#FFFFFF" mask="url(#mask-42)" transform="translate(7.441942, 7.441942) rotate(-135.000000) translate(-7.441942, -7.441942) " x="-0.418339636" y="6.19194174" width="15.7205627" height="2.5"></rect>
                    <rect id="Rectangle-2-Copy-4" fill="#F85757" mask="url(#mask-42)" transform="translate(7.500000, 7.500000) rotate(-135.000000) translate(-7.500000, -7.500000) " x="0" y="7" width="15" height="1"></rect>
                    <rect id="Rectangle-2" fill="#FFFFFF" mask="url(#mask-42)" x="0" y="6" width="15" height="4"></rect>
                    <rect id="Rectangle-2" fill="#FFFFFF" mask="url(#mask-42)" transform="translate(7.500000, 7.500000) rotate(-90.000000) translate(-7.500000, -7.500000) " x="0" y="5.5" width="15" height="4"></rect>
                    <path d="M6.5,7 L0,7 L0,9 L6.5,9 L6.5,15 L8.5,15 L8.5,9 L15,9 L15,7 L8.5,7 L8.5,-1 L6.5,-1 L6.5,7 Z" id="Combined-Shape" fill="#F85757" mask="url(#mask-42)"></path>
                </g>
                <g id="Group-4" transform="translate(241.000000, 0.000000)" fill="#FFFFFF">
                    <path d="M5,8.75 L5,8.75 C7.07106781,8.75 8.75,7.07106781 8.75,5 C8.75,2.92893219 7.07106781,1.25 5,1.25 C2.92893219,1.25 1.25,2.92893219 1.25,5 C1.25,7.07106781 2.92893219,8.75 5,8.75 L5,8.75 Z M5,10 L5,10 C2.23857625,10 0,7.76142375 0,5 C0,2.23857625 2.23857625,0 5,0 C7.76142375,0 10,2.23857625 10,5 C10,7.76142375 7.76142375,10 5,10 L5,10 Z" id="Shape"></path>
                    <path d="M7.13602924,8.84281953 L10.5286164,12.4447506 C10.7179497,12.6457669 11.0343904,12.6552379 11.2354067,12.4659047 C11.436423,12.2765714 11.445894,11.9601306 11.2565607,11.7591144 L7.86397356,8.15718327 C7.67464033,7.956167 7.35819955,7.94669602 7.15718327,8.13602924 C6.956167,8.32536247 6.94669602,8.64180326 7.13602924,8.84281953 L7.13602924,8.84281953 Z" id="Shape"></path>
                </g>
                <g id="Group-4-Copy" transform="translate(254.000000, 0.000000)" fill="#8D9EAD">
                    <path d="M5,8.75 L5,8.75 C7.07106781,8.75 8.75,7.07106781 8.75,5 C8.75,2.92893219 7.07106781,1.25 5,1.25 C2.92893219,1.25 1.25,2.92893219 1.25,5 C1.25,7.07106781 2.92893219,8.75 5,8.75 L5,8.75 Z M5,10 L5,10 C2.23857625,10 0,7.76142375 0,5 C0,2.23857625 2.23857625,0 5,0 C7.76142375,0 10,2.23857625 10,5 C10,7.76142375 7.76142375,10 5,10 L5,10 Z" id="Shape"></path>
                    <path d="M7.13602924,8.84281953 L10.5286164,12.4447506 C10.7179497,12.6457669 11.0343904,12.6552379 11.2354067,12.4659047 C11.436423,12.2765714 11.445894,11.9601306 11.2565607,11.7591144 L7.86397356,8.15718327 C7.67464033,7.956167 7.35819955,7.94669602 7.15718327,8.13602924 C6.956167,8.32536247 6.94669602,8.64180326 7.13602924,8.84281953 L7.13602924,8.84281953 Z" id="Shape"></path>
                </g>
                <g id="Group-4-Copy-2" transform="translate(267.000000, 0.000000)" fill="#193D5A">
                    <path d="M5,8.75 L5,8.75 C7.07106781,8.75 8.75,7.07106781 8.75,5 C8.75,2.92893219 7.07106781,1.25 5,1.25 C2.92893219,1.25 1.25,2.92893219 1.25,5 C1.25,7.07106781 2.92893219,8.75 5,8.75 L5,8.75 Z M5,10 L5,10 C2.23857625,10 0,7.76142375 0,5 C0,2.23857625 2.23857625,0 5,0 C7.76142375,0 10,2.23857625 10,5 C10,7.76142375 7.76142375,10 5,10 L5,10 Z" id="Shape"></path>
                    <path d="M7.13602924,8.84281953 L10.5286164,12.4447506 C10.7179497,12.6457669 11.0343904,12.6552379 11.2354067,12.4659047 C11.436423,12.2765714 11.445894,11.9601306 11.2565607,11.7591144 L7.86397356,8.15718327 C7.67464033,7.956167 7.35819955,7.94669602 7.15718327,8.13602924 C6.956167,8.32536247 6.94669602,8.64180326 7.13602924,8.84281953 L7.13602924,8.84281953 Z" id="Shape"></path>
                </g>
                <g id="Group-7" transform="translate(318.000000, 0.000000)">
                    <polygon id="Shape" fill="#193D5A" points="7.5 8 7.5 13 8.5 13 8.5 8"></polygon>
                    <path d="M8,6 L8,6 C8.55228475,6 9,5.55228475 9,5 C9,4.44771525 8.55228475,4 8,4 C7.44771525,4 7,4.44771525 7,5 C7,5.55228475 7.44771525,6 8,6 L8,6 Z M8,7 L8,7 C6.8954305,7 6,6.1045695 6,5 C6,3.8954305 6.8954305,3 8,3 C9.1045695,3 10,3.8954305 10,5 C10,6.1045695 9.1045695,7 8,7 L8,7 Z" id="Shape" fill="#193D5A"></path>
                    <g id="Shape-+-Shape-Mask" transform="translate(10.000000, 0.000000)">
                        <g id="Mask">
                            <polygon id="path-23" points="8.8817842e-16 7 3 10 5.5 4.5 3 0 8.8817842e-16 3 0.5 5"></polygon>
                        </g>
                        <g id="Shape-Clipped">
                            <mask id="mask-44" fill="white">
                                <use xlink:href="#path-43"></use>
                            </mask>
                            <g id="path-23"></g>
                            <path d="M-2,8 L-2,8 C-0.343145751,8 1,6.65685425 1,5 C1,3.34314575 -0.343145751,2 -2,2 C-3.65685425,2 -5,3.34314575 -5,5 C-5,6.65685425 -3.65685425,8 -2,8 L-2,8 Z M-2,9 L-2,9 C-4.209139,9 -6,7.209139 -6,5 C-6,2.790861 -4.209139,1 -2,1 C0.209138999,1 2,2.790861 2,5 C2,7.209139 0.209138999,9 -2,9 L-2,9 Z" id="Shape" fill="#193D5A" mask="url(#mask-44)"></path>
                        </g>
                        <g id="Shape-Clipped">
                            <mask id="mask-46" fill="white">
                                <use xlink:href="#path-45"></use>
                            </mask>
                            <g id="path-23"></g>
                            <path d="M-2,8 L-2,8 C-0.343145751,8 1,6.65685425 1,5 C1,3.34314575 -0.343145751,2 -2,2 C-3.65685425,2 -5,3.34314575 -5,5 C-5,6.65685425 -3.65685425,8 -2,8 L-2,8 Z M-2,9 L-2,9 C-4.209139,9 -6,7.209139 -6,5 C-6,2.790861 -4.209139,1 -2,1 C0.209138999,1 2,2.790861 2,5 C2,7.209139 0.209138999,9 -2,9 L-2,9 Z" id="Shape" fill="#193D5A" mask="url(#mask-46)"></path>
                        </g>
                        <g id="Shape-Clipped">
                            <mask id="mask-48" fill="white">
                                <use xlink:href="#path-47"></use>
                            </mask>
                            <g id="path-23"></g>
                            <path d="M-2,10 L-2,10 C0.761423749,10 3,7.76142375 3,5 C3,2.23857625 0.761423749,0 -2,0 C-4.76142375,0 -7,2.23857625 -7,5 C-7,7.76142375 -4.76142375,10 -2,10 L-2,10 Z M-2,11 L-2,11 C-5.3137085,11 -8,8.3137085 -8,5 C-8,1.6862915 -5.3137085,-1 -2,-1 C1.3137085,-1 4,1.6862915 4,5 C4,8.3137085 1.3137085,11 -2,11 L-2,11 Z" id="Shape" fill="#193D5A" mask="url(#mask-48)"></path>
                        </g>
                        <g id="Shape-Clipped">
                            <mask id="mask-50" fill="white">
                                <use xlink:href="#path-49"></use>
                            </mask>
                            <g id="path-23"></g>
                            <path d="M-2,10 L-2,10 C0.761423749,10 3,7.76142375 3,5 C3,2.23857625 0.761423749,0 -2,0 C-4.76142375,0 -7,2.23857625 -7,5 C-7,7.76142375 -4.76142375,10 -2,10 L-2,10 Z M-2,11 L-2,11 C-5.3137085,11 -8,8.3137085 -8,5 C-8,1.6862915 -5.3137085,-1 -2,-1 C1.3137085,-1 4,1.6862915 4,5 C4,8.3137085 1.3137085,11 -2,11 L-2,11 Z" id="Shape" fill="#193D5A" mask="url(#mask-50)"></path>
                        </g>
                    </g>
                    <g id="Shape-+-Shape-Mask" transform="translate(3.000000, 5.000000) scale(-1, 1) translate(-3.000000, -5.000000) ">
                        <g id="Mask">
                            <polygon id="path-25" points="0 7 3 10 5.5 4.5 3 0 0 3 0.5 5"></polygon>
                        </g>
                        <g id="Shape-Clipped">
                            <mask id="mask-52" fill="white">
                                <use xlink:href="#path-51"></use>
                            </mask>
                            <g id="path-25"></g>
                            <path d="M-2,8 L-2,8 C-0.343145751,8 1,6.65685425 1,5 C1,3.34314575 -0.343145751,2 -2,2 C-3.65685425,2 -5,3.34314575 -5,5 C-5,6.65685425 -3.65685425,8 -2,8 L-2,8 Z M-2,9 L-2,9 C-4.209139,9 -6,7.209139 -6,5 C-6,2.790861 -4.209139,1 -2,1 C0.209138999,1 2,2.790861 2,5 C2,7.209139 0.209138999,9 -2,9 L-2,9 Z" id="Shape" fill="#193D5A" mask="url(#mask-52)"></path>
                        </g>
                        <g id="Shape-Clipped">
                            <mask id="mask-54" fill="white">
                                <use xlink:href="#path-53"></use>
                            </mask>
                            <g id="path-25"></g>
                            <path d="M-2,8 L-2,8 C-0.343145751,8 1,6.65685425 1,5 C1,3.34314575 -0.343145751,2 -2,2 C-3.65685425,2 -5,3.34314575 -5,5 C-5,6.65685425 -3.65685425,8 -2,8 L-2,8 Z M-2,9 L-2,9 C-4.209139,9 -6,7.209139 -6,5 C-6,2.790861 -4.209139,1 -2,1 C0.209138999,1 2,2.790861 2,5 C2,7.209139 0.209138999,9 -2,9 L-2,9 Z" id="Shape" fill="#193D5A" mask="url(#mask-54)"></path>
                        </g>
                        <g id="Shape-Clipped">
                            <mask id="mask-56" fill="white">
                                <use xlink:href="#path-55"></use>
                            </mask>
                            <g id="path-25"></g>
                            <path d="M-2,10 L-2,10 C0.761423749,10 3,7.76142375 3,5 C3,2.23857625 0.761423749,0 -2,0 C-4.76142375,0 -7,2.23857625 -7,5 C-7,7.76142375 -4.76142375,10 -2,10 L-2,10 Z M-2,11 L-2,11 C-5.3137085,11 -8,8.3137085 -8,5 C-8,1.6862915 -5.3137085,-1 -2,-1 C1.3137085,-1 4,1.6862915 4,5 C4,8.3137085 1.3137085,11 -2,11 L-2,11 Z" id="Shape" fill="#193D5A" mask="url(#mask-56)"></path>
                        </g>
                        <g id="Shape-Clipped">
                            <mask id="mask-58" fill="white">
                                <use xlink:href="#path-57"></use>
                            </mask>
                            <g id="path-25"></g>
                            <path d="M-2,10 L-2,10 C0.761423749,10 3,7.76142375 3,5 C3,2.23857625 0.761423749,0 -2,0 C-4.76142375,0 -7,2.23857625 -7,5 C-7,7.76142375 -4.76142375,10 -2,10 L-2,10 Z M-2,11 L-2,11 C-5.3137085,11 -8,8.3137085 -8,5 C-8,1.6862915 -5.3137085,-1 -2,-1 C1.3137085,-1 4,1.6862915 4,5 C4,8.3137085 1.3137085,11 -2,11 L-2,11 Z" id="Shape" fill="#193D5A" mask="url(#mask-58)"></path>
                        </g>
                    </g>
                </g>
                <g id="Group-7-Copy" transform="translate(333.000000, 0.000000)">
                    <polygon id="Shape" fill="#8D9EAD" points="7.5 8 7.5 13 8.5 13 8.5 8"></polygon>
                    <path d="M8,6 L8,6 C8.55228475,6 9,5.55228475 9,5 C9,4.44771525 8.55228475,4 8,4 C7.44771525,4 7,4.44771525 7,5 C7,5.55228475 7.44771525,6 8,6 L8,6 Z M8,7 L8,7 C6.8954305,7 6,6.1045695 6,5 C6,3.8954305 6.8954305,3 8,3 C9.1045695,3 10,3.8954305 10,5 C10,6.1045695 9.1045695,7 8,7 L8,7 Z" id="Shape" fill="#8D9EAD"></path>
                    <g id="Shape-+-Shape-Mask" transform="translate(10.000000, 0.000000)">
                        <g id="Mask">
                            <polygon id="path-27" points="0 7 3 10 5.5 4.5 3 0 0 3 0.5 5"></polygon>
                        </g>
                        <g id="Shape-Clipped">
                            <mask id="mask-60" fill="white">
                                <use xlink:href="#path-59"></use>
                            </mask>
                            <g id="path-27"></g>
                            <path d="M-2,8 L-2,8 C-0.343145751,8 1,6.65685425 1,5 C1,3.34314575 -0.343145751,2 -2,2 C-3.65685425,2 -5,3.34314575 -5,5 C-5,6.65685425 -3.65685425,8 -2,8 L-2,8 Z M-2,9 L-2,9 C-4.209139,9 -6,7.209139 -6,5 C-6,2.790861 -4.209139,1 -2,1 C0.209138999,1 2,2.790861 2,5 C2,7.209139 0.209138999,9 -2,9 L-2,9 Z" id="Shape" fill="#8D9EAD" mask="url(#mask-60)"></path>
                        </g>
                        <g id="Shape-Clipped">
                            <mask id="mask-62" fill="white">
                                <use xlink:href="#path-61"></use>
                            </mask>
                            <g id="path-27"></g>
                            <path d="M-2,8 L-2,8 C-0.343145751,8 1,6.65685425 1,5 C1,3.34314575 -0.343145751,2 -2,2 C-3.65685425,2 -5,3.34314575 -5,5 C-5,6.65685425 -3.65685425,8 -2,8 L-2,8 Z M-2,9 L-2,9 C-4.209139,9 -6,7.209139 -6,5 C-6,2.790861 -4.209139,1 -2,1 C0.209138999,1 2,2.790861 2,5 C2,7.209139 0.209138999,9 -2,9 L-2,9 Z" id="Shape" fill="#8D9EAD" mask="url(#mask-62)"></path>
                        </g>
                        <g id="Shape-Clipped">
                            <mask id="mask-64" fill="white">
                                <use xlink:href="#path-63"></use>
                            </mask>
                            <g id="path-27"></g>
                            <path d="M-2,10 L-2,10 C0.761423749,10 3,7.76142375 3,5 C3,2.23857625 0.761423749,0 -2,0 C-4.76142375,0 -7,2.23857625 -7,5 C-7,7.76142375 -4.76142375,10 -2,10 L-2,10 Z M-2,11 L-2,11 C-5.3137085,11 -8,8.3137085 -8,5 C-8,1.6862915 -5.3137085,-1 -2,-1 C1.3137085,-1 4,1.6862915 4,5 C4,8.3137085 1.3137085,11 -2,11 L-2,11 Z" id="Shape" fill="#8D9EAD" mask="url(#mask-64)"></path>
                        </g>
                        <g id="Shape-Clipped">
                            <mask id="mask-66" fill="white">
                                <use xlink:href="#path-65"></use>
                            </mask>
                            <g id="path-27"></g>
                            <path d="M-2,10 L-2,10 C0.761423749,10 3,7.76142375 3,5 C3,2.23857625 0.761423749,0 -2,0 C-4.76142375,0 -7,2.23857625 -7,5 C-7,7.76142375 -4.76142375,10 -2,10 L-2,10 Z M-2,11 L-2,11 C-5.3137085,11 -8,8.3137085 -8,5 C-8,1.6862915 -5.3137085,-1 -2,-1 C1.3137085,-1 4,1.6862915 4,5 C4,8.3137085 1.3137085,11 -2,11 L-2,11 Z" id="Shape" fill="#8D9EAD" mask="url(#mask-66)"></path>
                        </g>
                    </g>
                    <g id="Shape-+-Shape-Mask" transform="translate(3.000000, 5.000000) scale(-1, 1) translate(-3.000000, -5.000000) ">
                        <g id="Mask">
                            <polygon id="path-29" points="0 7 3 10 5.5 4.5 3 0 0 3 0.5 5"></polygon>
                        </g>
                        <g id="Shape-Clipped">
                            <mask id="mask-68" fill="white">
                                <use xlink:href="#path-67"></use>
                            </mask>
                            <g id="path-29"></g>
                            <path d="M-2,8 L-2,8 C-0.343145751,8 1,6.65685425 1,5 C1,3.34314575 -0.343145751,2 -2,2 C-3.65685425,2 -5,3.34314575 -5,5 C-5,6.65685425 -3.65685425,8 -2,8 L-2,8 Z M-2,9 L-2,9 C-4.209139,9 -6,7.209139 -6,5 C-6,2.790861 -4.209139,1 -2,1 C0.209138999,1 2,2.790861 2,5 C2,7.209139 0.209138999,9 -2,9 L-2,9 Z" id="Shape" fill="#193D5A" mask="url(#mask-68)"></path>
                        </g>
                        <g id="Shape-Clipped">
                            <mask id="mask-70" fill="white">
                                <use xlink:href="#path-69"></use>
                            </mask>
                            <g id="path-29"></g>
                            <path d="M-2,8 L-2,8 C-0.343145751,8 1,6.65685425 1,5 C1,3.34314575 -0.343145751,2 -2,2 C-3.65685425,2 -5,3.34314575 -5,5 C-5,6.65685425 -3.65685425,8 -2,8 L-2,8 Z M-2,9 L-2,9 C-4.209139,9 -6,7.209139 -6,5 C-6,2.790861 -4.209139,1 -2,1 C0.209138999,1 2,2.790861 2,5 C2,7.209139 0.209138999,9 -2,9 L-2,9 Z" id="Shape" fill="#8D9EAD" mask="url(#mask-70)"></path>
                        </g>
                        <g id="Shape-Clipped">
                            <mask id="mask-72" fill="white">
                                <use xlink:href="#path-71"></use>
                            </mask>
                            <g id="path-29"></g>
                            <path d="M-2,10 L-2,10 C0.761423749,10 3,7.76142375 3,5 C3,2.23857625 0.761423749,0 -2,0 C-4.76142375,0 -7,2.23857625 -7,5 C-7,7.76142375 -4.76142375,10 -2,10 L-2,10 Z M-2,11 L-2,11 C-5.3137085,11 -8,8.3137085 -8,5 C-8,1.6862915 -5.3137085,-1 -2,-1 C1.3137085,-1 4,1.6862915 4,5 C4,8.3137085 1.3137085,11 -2,11 L-2,11 Z" id="Shape" fill="#8D9EAD" mask="url(#mask-72)"></path>
                        </g>
                        <g id="Shape-Clipped">
                            <mask id="mask-74" fill="white">
                                <use xlink:href="#path-73"></use>
                            </mask>
                            <g id="path-29"></g>
                            <path d="M-2,10 L-2,10 C0.761423749,10 3,7.76142375 3,5 C3,2.23857625 0.761423749,0 -2,0 C-4.76142375,0 -7,2.23857625 -7,5 C-7,7.76142375 -4.76142375,10 -2,10 L-2,10 Z M-2,11 L-2,11 C-5.3137085,11 -8,8.3137085 -8,5 C-8,1.6862915 -5.3137085,-1 -2,-1 C1.3137085,-1 4,1.6862915 4,5 C4,8.3137085 1.3137085,11 -2,11 L-2,11 Z" id="Shape" fill="#8D9EAD" mask="url(#mask-74)"></path>
                        </g>
                    </g>
                </g>
                <g id="Group-7-Copy-2" transform="translate(348.000000, 0.000000)">
                    <polygon id="Shape" fill="#FFFFFF" points="7.5 8 7.5 13 8.5 13 8.5 8"></polygon>
                    <path d="M8,6 L8,6 C8.55228475,6 9,5.55228475 9,5 C9,4.44771525 8.55228475,4 8,4 C7.44771525,4 7,4.44771525 7,5 C7,5.55228475 7.44771525,6 8,6 L8,6 Z M8,7 L8,7 C6.8954305,7 6,6.1045695 6,5 C6,3.8954305 6.8954305,3 8,3 C9.1045695,3 10,3.8954305 10,5 C10,6.1045695 9.1045695,7 8,7 L8,7 Z" id="Shape" fill="#FFFFFF"></path>
                    <g id="Shape-+-Shape-Mask" transform="translate(10.000000, 0.000000)">
                        <g id="Mask">
                            <polygon id="path-31" points="0 7 3 10 5.5 4.5 3 0 0 3 0.5 5"></polygon>
                        </g>
                        <g id="Shape-Clipped">
                            <mask id="mask-76" fill="white">
                                <use xlink:href="#path-75"></use>
                            </mask>
                            <g id="path-31"></g>
                            <path d="M-2,8 L-2,8 C-0.343145751,8 1,6.65685425 1,5 C1,3.34314575 -0.343145751,2 -2,2 C-3.65685425,2 -5,3.34314575 -5,5 C-5,6.65685425 -3.65685425,8 -2,8 L-2,8 Z M-2,9 L-2,9 C-4.209139,9 -6,7.209139 -6,5 C-6,2.790861 -4.209139,1 -2,1 C0.209138999,1 2,2.790861 2,5 C2,7.209139 0.209138999,9 -2,9 L-2,9 Z" id="Shape" fill="#FFFFFF" mask="url(#mask-76)"></path>
                        </g>
                        <g id="Shape-Clipped">
                            <mask id="mask-78" fill="white">
                                <use xlink:href="#path-77"></use>
                            </mask>
                            <g id="path-31"></g>
                            <path d="M-2,8 L-2,8 C-0.343145751,8 1,6.65685425 1,5 C1,3.34314575 -0.343145751,2 -2,2 C-3.65685425,2 -5,3.34314575 -5,5 C-5,6.65685425 -3.65685425,8 -2,8 L-2,8 Z M-2,9 L-2,9 C-4.209139,9 -6,7.209139 -6,5 C-6,2.790861 -4.209139,1 -2,1 C0.209138999,1 2,2.790861 2,5 C2,7.209139 0.209138999,9 -2,9 L-2,9 Z" id="Shape" fill="#FFFFFF" mask="url(#mask-78)"></path>
                        </g>
                        <g id="Shape-Clipped">
                            <mask id="mask-80" fill="white">
                                <use xlink:href="#path-79"></use>
                            </mask>
                            <g id="path-31"></g>
                            <path d="M-2,10 L-2,10 C0.761423749,10 3,7.76142375 3,5 C3,2.23857625 0.761423749,0 -2,0 C-4.76142375,0 -7,2.23857625 -7,5 C-7,7.76142375 -4.76142375,10 -2,10 L-2,10 Z M-2,11 L-2,11 C-5.3137085,11 -8,8.3137085 -8,5 C-8,1.6862915 -5.3137085,-1 -2,-1 C1.3137085,-1 4,1.6862915 4,5 C4,8.3137085 1.3137085,11 -2,11 L-2,11 Z" id="Shape" fill="#FFFFFF" mask="url(#mask-80)"></path>
                        </g>
                        <g id="Shape-Clipped">
                            <mask id="mask-82" fill="white">
                                <use xlink:href="#path-81"></use>
                            </mask>
                            <g id="path-31"></g>
                            <path d="M-2,10 L-2,10 C0.761423749,10 3,7.76142375 3,5 C3,2.23857625 0.761423749,0 -2,0 C-4.76142375,0 -7,2.23857625 -7,5 C-7,7.76142375 -4.76142375,10 -2,10 L-2,10 Z M-2,11 L-2,11 C-5.3137085,11 -8,8.3137085 -8,5 C-8,1.6862915 -5.3137085,-1 -2,-1 C1.3137085,-1 4,1.6862915 4,5 C4,8.3137085 1.3137085,11 -2,11 L-2,11 Z" id="Shape" fill="#FFFFFF" mask="url(#mask-82)"></path>
                        </g>
                    </g>
                    <g id="Shape-+-Shape-Mask" transform="translate(3.000000, 5.000000) scale(-1, 1) translate(-3.000000, -5.000000) ">
                        <g id="Mask">
                            <polygon id="path-33" points="0 7 3 10 5.5 4.5 3 0 0 3 0.5 5"></polygon>
                        </g>
                        <g id="Shape-Clipped">
                            <mask id="mask-84" fill="white">
                                <use xlink:href="#path-83"></use>
                            </mask>
                            <g id="path-33"></g>
                            <path d="M-2,8 L-2,8 C-0.343145751,8 1,6.65685425 1,5 C1,3.34314575 -0.343145751,2 -2,2 C-3.65685425,2 -5,3.34314575 -5,5 C-5,6.65685425 -3.65685425,8 -2,8 L-2,8 Z M-2,9 L-2,9 C-4.209139,9 -6,7.209139 -6,5 C-6,2.790861 -4.209139,1 -2,1 C0.209138999,1 2,2.790861 2,5 C2,7.209139 0.209138999,9 -2,9 L-2,9 Z" id="Shape" fill="#FFFFFF" mask="url(#mask-84)"></path>
                        </g>
                        <g id="Shape-Clipped">
                            <mask id="mask-86" fill="white">
                                <use xlink:href="#path-85"></use>
                            </mask>
                            <g id="path-33"></g>
                            <path d="M-2,8 L-2,8 C-0.343145751,8 1,6.65685425 1,5 C1,3.34314575 -0.343145751,2 -2,2 C-3.65685425,2 -5,3.34314575 -5,5 C-5,6.65685425 -3.65685425,8 -2,8 L-2,8 Z M-2,9 L-2,9 C-4.209139,9 -6,7.209139 -6,5 C-6,2.790861 -4.209139,1 -2,1 C0.209138999,1 2,2.790861 2,5 C2,7.209139 0.209138999,9 -2,9 L-2,9 Z" id="Shape" fill="#FFFFFF" mask="url(#mask-86)"></path>
                        </g>
                        <g id="Shape-Clipped">
                            <mask id="mask-88" fill="white">
                                <use xlink:href="#path-87"></use>
                            </mask>
                            <g id="path-33"></g>
                            <path d="M-2,10 L-2,10 C0.761423749,10 3,7.76142375 3,5 C3,2.23857625 0.761423749,0 -2,0 C-4.76142375,0 -7,2.23857625 -7,5 C-7,7.76142375 -4.76142375,10 -2,10 L-2,10 Z M-2,11 L-2,11 C-5.3137085,11 -8,8.3137085 -8,5 C-8,1.6862915 -5.3137085,-1 -2,-1 C1.3137085,-1 4,1.6862915 4,5 C4,8.3137085 1.3137085,11 -2,11 L-2,11 Z" id="Shape" fill="#FFFFFF" mask="url(#mask-88)"></path>
                        </g>
                        <g id="Shape-Clipped">
                            <mask id="mask-90" fill="white">
                                <use xlink:href="#path-89"></use>
                            </mask>
                            <g id="path-33"></g>
                            <path d="M-2,10 L-2,10 C0.761423749,10 3,7.76142375 3,5 C3,2.23857625 0.761423749,0 -2,0 C-4.76142375,0 -7,2.23857625 -7,5 C-7,7.76142375 -4.76142375,10 -2,10 L-2,10 Z M-2,11 L-2,11 C-5.3137085,11 -8,8.3137085 -8,5 C-8,1.6862915 -5.3137085,-1 -2,-1 C1.3137085,-1 4,1.6862915 4,5 C4,8.3137085 1.3137085,11 -2,11 L-2,11 Z" id="Shape" fill="#FFFFFF" mask="url(#mask-90)"></path>
                        </g>
                    </g>
                </g>
                <g id="Group-5" transform="translate(280.000000, 2.000000)" fill="#193D5A">
                    <path d="M1,0.997030139 L1,0.997030139 L1,7.00296986 C1,6.9967861 1.00321662,7 1.00247329,7 L10.9975267,7 C10.9966241,7 11,6.99665839 11,7.00296986 L11,0.997030139 C11,1.0032139 10.9967834,1 10.9975267,1 L1.00247329,1 C1.00337592,1 1,1.00334161 1,0.997030139 L1,0.997030139 Z M0,0.997030139 C0,0.446385598 0.455760956,0 1.00247329,0 L10.9975267,0 C11.5511774,0 12,0.453036308 12,0.997030139 L12,7.00296986 C12,7.5536144 11.544239,8 10.9975267,8 L1.00247329,8 C0.448822582,8 0,7.54696369 0,7.00296986 L0,0.997030139 L0,0.997030139 Z" id="Shape"></path>
                    <polygon id="Shape" points="1 3.5 11.5 3.5 11.5 2.5 1 2.5"></polygon>
                    <polygon id="Shape" points="6.5 5.5 9.5 5.5 9.5 4.5 6.5 4.5"></polygon>
                </g>
                <g id="Group-5-Copy" transform="translate(293.000000, 2.000000)" fill="#8D9EAD">
                    <path d="M1,0.997030139 L1,0.997030139 L1,7.00296986 C1,6.9967861 1.00321662,7 1.00247329,7 L10.9975267,7 C10.9966241,7 11,6.99665839 11,7.00296986 L11,0.997030139 C11,1.0032139 10.9967834,1 10.9975267,1 L1.00247329,1 C1.00337592,1 1,1.00334161 1,0.997030139 L1,0.997030139 Z M0,0.997030139 C0,0.446385598 0.455760956,0 1.00247329,0 L10.9975267,0 C11.5511774,0 12,0.453036308 12,0.997030139 L12,7.00296986 C12,7.5536144 11.544239,8 10.9975267,8 L1.00247329,8 C0.448822582,8 0,7.54696369 0,7.00296986 L0,0.997030139 L0,0.997030139 Z" id="Shape"></path>
                    <polygon id="Shape" points="1 3.5 11.5 3.5 11.5 2.5 1 2.5"></polygon>
                    <polygon id="Shape" points="6.5 5.5 9.5 5.5 9.5 4.5 6.5 4.5"></polygon>
                </g>
                <g id="Group-5-Copy-2" transform="translate(306.000000, 2.000000)" fill="#FFFFFF">
                    <path d="M1,0.997030139 L1,0.997030139 L1,7.00296986 C1,6.9967861 1.00321662,7 1.00247329,7 L10.9975267,7 C10.9966241,7 11,6.99665839 11,7.00296986 L11,0.997030139 C11,1.0032139 10.9967834,1 10.9975267,1 L1.00247329,1 C1.00337592,1 1,1.00334161 1,0.997030139 L1,0.997030139 Z M0,0.997030139 C0,0.446385598 0.455760956,0 1.00247329,0 L10.9975267,0 C11.5511774,0 12,0.453036308 12,0.997030139 L12,7.00296986 C12,7.5536144 11.544239,8 10.9975267,8 L1.00247329,8 C0.448822582,8 0,7.54696369 0,7.00296986 L0,0.997030139 L0,0.997030139 Z" id="Shape"></path>
                    <polygon id="Shape" points="1 3.5 11.5 3.5 11.5 2.5 1 2.5"></polygon>
                    <polygon id="Shape" points="6.5 5.5 9.5 5.5 9.5 4.5 6.5 4.5"></polygon>
                </g>
                <g id="Group-8" transform="translate(280.000000, 17.000000)" fill="#193D5A">
                    <path d="M1,2.99539757 L1,2.99539757 L1,11.0046024 C1,10.9954718 1.00452889,11 1.00247329,11 L10.9975267,11 C10.9969864,11 11,10.9970219 11,11.0046024 L11,2.99539757 C11,3.00452816 10.9954711,3 10.9975267,3 L1.00247329,3 C1.00301359,3 1,3.00297808 1,2.99539757 L1,2.99539757 Z M0,2.99539757 C0,2.44565467 0.455760956,2 1.00247329,2 L10.9975267,2 C11.5511774,2 12,2.4556644 12,2.99539757 L12,11.0046024 C12,11.5543453 11.544239,12 10.9975267,12 L1.00247329,12 C0.448822582,12 0,11.5443356 0,11.0046024 L0,2.99539757 L0,2.99539757 Z" id="Shape"></path>
                    <polygon id="Shape" points="4 2.01941932 4 0.5 3.5 1 8.5 1 8 0.5 8 2.04950976 9 2.04950976 9 0.5 9 0 8.5 0 3.5 0 3 0 3 0.5 3 2.01941932"></polygon>
                    <polygon id="Shape" points="5.5 5 5.5 9 6.5 9 6.5 5"></polygon>
                    <polygon id="Shape" points="8 6.5 4 6.5 4 7.5 8 7.5"></polygon>
                </g>
                <g id="Group-8-Copy" transform="translate(293.000000, 17.000000)" fill="#8D9EAD">
                    <path d="M1,2.99539757 L1,2.99539757 L1,11.0046024 C1,10.9954718 1.00452889,11 1.00247329,11 L10.9975267,11 C10.9969864,11 11,10.9970219 11,11.0046024 L11,2.99539757 C11,3.00452816 10.9954711,3 10.9975267,3 L1.00247329,3 C1.00301359,3 1,3.00297808 1,2.99539757 L1,2.99539757 Z M0,2.99539757 C0,2.44565467 0.455760956,2 1.00247329,2 L10.9975267,2 C11.5511774,2 12,2.4556644 12,2.99539757 L12,11.0046024 C12,11.5543453 11.544239,12 10.9975267,12 L1.00247329,12 C0.448822582,12 0,11.5443356 0,11.0046024 L0,2.99539757 L0,2.99539757 Z" id="Shape"></path>
                    <polygon id="Shape" points="4 2.01941932 4 0.5 3.5 1 8.5 1 8 0.5 8 2.04950976 9 2.04950976 9 0.5 9 0 8.5 0 3.5 0 3 0 3 0.5 3 2.01941932"></polygon>
                    <polygon id="Shape" points="5.5 5 5.5 9 6.5 9 6.5 5"></polygon>
                    <polygon id="Shape" points="8 6.5 4 6.5 4 7.5 8 7.5"></polygon>
                </g>
                <g id="Group-8-Copy-2" transform="translate(306.000000, 17.000000)" fill="#FFFFFF">
                    <path d="M1,2.99539757 L1,2.99539757 L1,11.0046024 C1,10.9954718 1.00452889,11 1.00247329,11 L10.9975267,11 C10.9969864,11 11,10.9970219 11,11.0046024 L11,2.99539757 C11,3.00452816 10.9954711,3 10.9975267,3 L1.00247329,3 C1.00301359,3 1,3.00297808 1,2.99539757 L1,2.99539757 Z M0,2.99539757 C0,2.44565467 0.455760956,2 1.00247329,2 L10.9975267,2 C11.5511774,2 12,2.4556644 12,2.99539757 L12,11.0046024 C12,11.5543453 11.544239,12 10.9975267,12 L1.00247329,12 C0.448822582,12 0,11.5443356 0,11.0046024 L0,2.99539757 L0,2.99539757 Z" id="Shape"></path>
                    <polygon id="Shape" points="4 2.01941932 4 0.5 3.5 1 8.5 1 8 0.5 8 2.04950976 9 2.04950976 9 0.5 9 0 8.5 0 3.5 0 3 0 3 0.5 3 2.01941932"></polygon>
                    <polygon id="Shape" points="5.5 5 5.5 9 6.5 9 6.5 5"></polygon>
                    <polygon id="Shape" points="8 6.5 4 6.5 4 7.5 8 7.5"></polygon>
                </g>
            </g>
        </g>
    </g>
</svg>